<mxfile host="app.diagrams.net" modified="2022-05-02T09:25:38.649Z" agent="5.0 (Windows NT 10.0; Win64; x64) AppleWebKit/537.36 (KHTML, like Gecko) Chrome/100.0.4896.127 Safari/537.36" etag="7OtOyhKMKZX8S_uCd9VH" version="17.4.6" type="github">
  <diagram id="RdxGGzLC1JPKc3muVLUm" name="Page-1">
    <mxGraphModel dx="1673" dy="1038" grid="1" gridSize="10" guides="1" tooltips="1" connect="1" arrows="1" fold="1" page="1" pageScale="1" pageWidth="827" pageHeight="1169" math="0" shadow="0">
      <root>
        <mxCell id="0" />
        <mxCell id="1" parent="0" />
        <mxCell id="NkwQf3qtkCEpOkier5qr-1" value="Worker" style="swimlane;whiteSpace=wrap;fontSize=25;startSize=23;" vertex="1" parent="1">
          <mxGeometry x="164.5" y="128" width="280" height="822" as="geometry" />
        </mxCell>
        <mxCell id="NkwQf3qtkCEpOkier5qr-2" value="" style="shape=image;verticalLabelPosition=bottom;labelBackgroundColor=default;verticalAlign=top;aspect=fixed;imageAspect=0;image=data:image/png,iVBORw0KGgoAAAANSUhEUgAAAOUAAACVCAYAAACn6z3XAAAPc0lEQVR4nO3df0yUd4LH8bcFhwEGGPk5KFZY0ALTrdC6Qtpe1bauZzXZ3kqqKblcbf+wTXt3m9Rt/7A219a9xJ6963bbbE2utZccl2roxubQi6uttb1uxPVW2jqAFQvWQX4IMsAIA4LcHzMgP5QfMuh3zOeVGJlnvs/zfOeBD8/3+X6/z8Osf3lv68D2f95BS303N9O2w3fd1P2JhAJbeCqzEudFDtzsQIJCKXI9d9yKQIrI9d1xqysgIiMplCKGUShFDKNQihhGoRQxjEIpYhiFUsQw1w3li5+3MTAwQOWHo974sJKBgQHaPn9xBqqzkeIHq9mydNuYd9YsrWbLgx9RMAN7NVFB3jG2LN/HmltdEbnpdKYUMYxCKWKY8Olu4Pk/tvHuSju+mioaHDlk2ABvLZ///gUeeWl/EKp4fVmZH7EqtRB7ODDQg6/rIEdObuZ4N8A2Ni0vwubZzlsVuwJrjF4WeH2pAq81j8Qw8La+wm9rInj87n/krqhYwmcBAx20tH3CZ99up2ZMLZbx6D0vsXhOJtZZ/np4O0o5VP0GruH16K7EZ8nFHhbYXvNv2V1VggeANJbk7GRZUibWO4B+N42943zw7H1scWTivXSG8KjAfi+fwVW7ib3n3YC/+fuovZfGdnDEJcJAJceP/JIDLOPRvK0sjkvzr3elg5YLw+sCRG5k3U+fIzsqFgCfrxJfeC723lJ+c+yV6x+370pxLPgdv0hbSeJs/6Z8PRWcPLOZA83usd8zoK+nklNn/8Ff78jiKRz329e0z5TWwMG1ZuUwp6WKqupGfLYMHv71B+zbON2tX58942PWzS/E1l9BdUMpFW1uiF7Lqnt2kDXFbVmjfwLtpRyvL+WbC6U8kP0SzmjwtPmXVXf0Yo/fyKrcwjHr5v30NxTEZ0LXESrqS6hocxMeV8za7GdH7iMyjb72UioajtDSH0tiyks8vmDws+zgkZRMwi/7P4vLayUxMnbCetuik/C0lFLRcBRPWCbOrHd4NHJ4iUQSrW6q60s43vDfnCKN5fe+Q4E9ib6Og1Q0lFLTDYkpWynOWRZYp5A1d/+K7KgIvO1lHK8vo3VW5lCIxjtuOHayPmMl9isV/n1eqKBvdh5LFm3z9wXM2cGqwe9ZfQnHm47gCcvFmbmDB2BKx/12NuGZMmfjAAOTCVfdHyjOWMd+4Jn9Dfz7agf3/+2LsOutqdcqqogty4vGLu+7+uWShDzCByo5XrGBA4E59fX3/C9r4h+iYB7U1E9+d30d/8XOb98eer1mfgT0n+HM6Vc41A1QxPKcQiK8Y9dtPP+fHO+z0lT1NhUApDG74BDO6EIKeJ/ya+2j6yNezCwkLnYtUOb/LLhxVW9gbxtAIesKPyLbOn69vRff5ANXKQD2vj+waX4umQvSOFTtDpRwU1O9gU/aBtd4mUdiIsBbwn+ceCNwZqxg/f3byIrfyBKOcDyyiPToUWXcO3i+YC32CY7bksX52HDjqtjA3sD3pDznEM+n5JI1D8pJxAr4On/PJ6ePAJA+fyt5tk4uAfPCJ3/cb2cThtLnrqLWM2yBPYOctLE/LZ7aPzHYWP3gcCU7Vjuwp+bcWK26D7K37sCIRdnpO8iePfhqIylWoL8Dz7CbXCo63ayKz8MWM7Xd9V1pH/H668YjpGcso2DpNyzuqcLdeoDyus3UXeOGmsZeWBb3JEuWPzuyp7RvZLkR+xjw/xcelgSsJcEC9LlpGArPUdy+jglD6estHfrac/4HvPNzsVlXAoPN9R58bcNWSMvBPgt8fe6rTVVKafJtJSs2iRSABH9wPN0Hr5bpduHpu0YoRx23FEssEIuzoBrnqLI2G3BqFycduSxJ3MmWB1to8R7lVOMH7K2qAqBuCsf9djZhKGsP5pL79LAFH1YysPEGwzZZA+24mspGLEpfsGPYq17/D/asmdm959wm3mspJC+1CGdCIelzXyYr9Rlqajew+5x7WMlC1uT8iixrBy0XSzjZdAIPo3+BGGRgCmWvuCcuM0rPAICb6qq3qR79XhfAEQ7831K+SXiWxfOWkxWzlgey13JfWgmfHn+Dmkkf99tb0Hpf7Rn381jg62dW5GIHfJ7GYG1+lBKaeoCwWOzDrqHyYtIIpwNv59Vl1vDkqy8cSUxw8gHggbv3sSmrkLofNlPy5wfZfqwMzx2JZKUUjyqZg90CdP2Rnd++wddNZbiarISHTeWzlNHaC4SnkTpncFkhadaJrymtlqtNfHvaT/zH/HLV9Veor8IzANbwtGFnvSJSrBFw+QJNAJc68QG2qOKrZSKd17ymHK2hpwWwEj6rDFdT4F8HzB6ooKYTSNnGUz/7mPtmv8+Bbzfw3tfZHPJ0YLWt4r6UqRz329u0e1+HpP+SktpKGnxzyMh2AB7+tOeVoG1+tEONR1mcVUhe3sfYLtbgi8gnOz4RfAcprwc4SktPEYm2dWy6x0JddzKpiYXYAN8E246MSCMxZiPF+ZnUeJux2fzreXvPjCp5AV8/EPVznnH24O5NJjG+gHQLY5qv436WCxXcZ8vjruyPebzFBbZVZE3it4ct/iWecebR2JdGekouXDlD3fmj46yxnZOedTjmFPF3+cnUdLVji/05WRbwXNjFcYC2Euq7V+KMeZLi/CRqvJCauHJM0/VaXO4veHBOEVlZ+1g/5wTeK0mkJS0jMewM83rWsI844qLzmJe1D1vcUTykkW6LhYFKPB0QmTbZ4357C1ooPTUnaHPkkzN8SOTfgrX1a3A/xacR/u717NQ8/5DIpTIOnNwc6D4v45PvnRQvfJL0+GISAW97Jd6I3Ak/9KHKN7HlPkdm7EqWxAEDHXjbSzh0unRUyTI+O5OPfWERjqRiHICv6yD13SuZN5Xm69nNlEW8w1878nDOy/MPiXR34IgcfzWv1409sQhHYEik+sdN7Gsbf53yb35NTN5WFsetJC8O/5BI0xvsrjoSKHGUvZVvE5bzNNlxa1kSB31dFbT05ZE40edoe4XdNVbWZ6wkKyUTgL7LZ3Cd3sS+dqD979ln28kjjkKyUouH3q+u2+LvrJv0cb+9zWJqVxpjvPh5GztW2PEc3sychyff06pn9ExDYJyypTGbnaMv3mbCnN/x/OKV2DreZ/tf3p64vExL8JqvcntJKOaB6CTs0TmkJSzDTgd1zQrkzTDtUPoGr536JrpSk6CbVhtnAklPstwxvAm6mb1TGPuVGzft5uuNUvNV5No0IV3EMAqliGEUShHDKJQihlEoRQwTrl5QEbPoTCliGIVSxDAKpYhhFEoRwyiUIoZRKEUMo1CKGEahFDGMQiliGIVSxDAKpYhhFEoRwyiUIoZRKEUMo1CKGEahFDGMQiliGIVSxDAKpYhhFEoRwyiUIoZRKEUMo1CKGEahFDGMQiliGIVSxDAKpYhhpv3n1cUMCVEZZCUsJyEynfioDCxh0QB4e5u52FVHQ+dJznr+jLe3+RbXVCYya9vhu27Jn1eX4FhgX0rB/I3YLMmTKt/YeZJy90e0dtXOcM3kRimUIcoSFs1D6S9wp33p0LKL3XWc9RzjYlctvf2XhsrFR2WwMGEFNkvSUNkT53dzomHPTa+3TEyhDEGWsGgeu+s14iMzAPjRc4wTDXsmPPulxjjJn7seh805tN6Xde8OBVjMEPbwU4n/dKsrIZM3PJCX+7v4ovZfOdGwh+7LnqEy+XPXExEWTbuvfsS63t4LnG49TG9/F2lx+cRZ52G3zuOHtq9v9seQcaj3NcQ8mvXyUCD3f/8qZz3HRryfGuMkP/UJCuZvvO42XM1lfFX3LgB32pdSOP/pGa2zTI1CGUKcyWuHmp77v3913ObqRB0/p1sPU35uFwC5yWtIiMoIXkVlWhTKEHLv3PUAk7p+nAxXcxmNXhcA+alPTHt7EhwKZYhYmLCC2WFRXO7vwtVUFrTtnji/G/A3Yyc7rCIzS6EMEQsCQx9nPeVB7S1t6HTh7b0wYh9yaymUISI15m6AMR07wXC69XBgH86gb1umTqEMATZLMrPDogD/mS3YvD3+qXfxUelB37ZMnUIZAmIirs7EmYmB/sH5sLqmNIMmpN/GHlv02phlX9a9p0nphlMoQ0Bvf9cNlXUErkOHiwiPxts7ctngHSWXp7AfmTkKZQgYPiaZGuMc97qytauWT6s2Ywlcgw7X2991zfHN+MDEgdZu3TliAoUyRDR6XThsThwxd0/Y2TPViQWDQyEz0YkkU6eOnhBxts0/FLIwYXlQt2uzJBMf6e91/XEGhltk6hTKEDE4lmizJAd1PLEwMHG90evSjc+GUCgNYLMkTzghvLf/El/VvcuPnmO0dtUFZb8L7EuHbpIO5tQ9mR5dUxrgb3LfYnZYFHu+e27c4YrTrYeHzpjTlRCVwV+lvwD4m60zMVNIbozOlAYYnK0zfJLATEqNcbJ60WtYwqK52F3Hl4F7K8UMOlMaZPWi18d9/2J3LeXndt1wL6klLJr8uU/gTF4b2F4d+0+9qseBGEahDCHxkRmsXvQ6lc37OHruw0mvN/j4yYUJK4YmCjR6XRyq2a5AGkihNMj/fP/qdc+CqTFOnMlrudO+lNzkNYHnuE58HZgQlcEvcnYMvb7c38Vfzu/G1ayOHVMplCGiodNFQ6eLh9JfICthBflzn5hUKDt7mmn0uujtu8TZQIeOzo5mUygNN/h818Fpc5Zwf/MzPjLjmhPOe/u7OOsp53TrF4HXl9h/6tWbV2GZNoXScAlR6SMeuDzctSacg//RHvlz1/PZmTc1ISAEKZSGa+h08VXdu9giJnevY0RYdOBp6MmsXvQae757Ts3VEKNQhoCpThg43XqYxxa9jiUsmnvnrp9ST63cegqlQeIj0wnW35D4vvXzQG/tzxTKEKNQGqRgBp5Urkd8hB6F0iAXu+uCfv13MUiT1+XmUSgNUn7uQ91oLAqlCS5212EJiw7aLVkS2vT3KUUMo1u3RAyjUIoYRqEUMYxCKWIYhVLEMAqliGEUShHDKJQihlEoRQyjUIoYRqEUMYxCKWIYhVLEMAqliGEUShHDKJQihlEoRQyjUIoYRqEUMYxCKWIYhVLEMAqliGEUShHDKJQihlEoRQyjUIoYRqEUMYxCKWIYhVLEMAqliGEUShHDKJQihlEoRQyjUIoYRqEUMYxCKWIYhVLEMAqliGEUShHDKJQihlEoRQyjUIoYRqEUMYxCKWIYhVLEMAqliGEUShHDKJQihlEoRQyjUIoYRqEUMYxCKWIYhVLEMAqliGHusIWn3uo6iMgw/w8Z6FuXlV68jwAAAABJRU5ErkJggg==;" vertex="1" parent="NkwQf3qtkCEpOkier5qr-1">
          <mxGeometry x="49.32" y="52" width="181.36" height="118" as="geometry" />
        </mxCell>
        <mxCell id="NkwQf3qtkCEpOkier5qr-3" value="Supervisor" style="swimlane;whiteSpace=wrap;fontSize=25;" vertex="1" parent="1">
          <mxGeometry x="444.5" y="128" width="275.5" height="822" as="geometry" />
        </mxCell>
        <mxCell id="NkwQf3qtkCEpOkier5qr-4" value="" style="shape=image;verticalLabelPosition=bottom;labelBackgroundColor=default;verticalAlign=top;aspect=fixed;imageAspect=0;image=data:image/png,iVBORw0KGgoAAAANSUhEUgAAAOUAAACWCAYAAAAhf095AAAOiklEQVR4nO3dfUzUd4LH8TfOOAwy4MDwKCiDQhWwJzYW7LWestVtqvTOqLduNNnT9jbeRdttqql/bLeX3XqX7Z7Nudtu9ppcq5csbd20XZsDk0br4zWLbB+4rThWQLGC8qijIAwDI/fHDFNQpFhQvtrPKyHO/B6/g3zyffh9f7+J+Pff/qzv5X/bTmtDF3fStoMz7+j5RO4GDmsqEQlpUX13OpCgUIrczITxCKSI3NyE8S6AiAymUIoYRqEUMYxCKWIYhVLEMAqliGEUShHDWIdbufnAJbYXOW++wck3iMj5xzEszjY2LFpFwk3X11J5aBmtcypYHBdJw7k57Kodw9PfkmBZHd6XeaVy53gVQu5Bw4by88rP8CSmBt84M8lJt0PrGTyNvuCy6jNjXJwSPvKUEwlAHg9mryetZx976j4MrW+nDcjo80Noq3ufwv9dM2woDzz3KLn9b948Qd/6HLxf/Jbc771ym4rjoabJE3qdSH420HeZqqbSQVs1/uURjt2mEoiMt2FDOSJZGyn54zZWzHJitwK9Xs4cfYNN39vC3tGXb0jz5lTwWBzU1RRQUg+F+RUsdvppbLeREhMLQK/vMIdOnyZr+hrc9mCt6msv4YNPX6ImdJyUjFf5u/QlJEwMvvd1V3K8dgsfNtcD6czLeZ2FiTOwh3revs7D/F/tBva3DShM5BNsXLAVpwXou0Jr86/Z7SnBC0A6efdtZ3FyPg4L0NeNr+sI5Z6n+bg9tH/MP7Ey50lmTQqWm95WGpp/yZ5TpXjTd7E5az52AOdWfrpoK77+GtO1lbXZK3HbQ/sFWmls/R3vhc8td6tRD/Rsf3s7a2Y7odWD57iHMx1OMos2U3Jg81iUb0iWiKGWJpBgPUHlhXc52X4Fq30hi3PXk9BzhMoL71LX1Y09Zi2PzkoPbp7yOqszl+C8VsnJhhI+aamkd2I+8+7bRiFAxnYeTZ4BXYepbCihsqWSXvtCCrO24x5wVntUOr2X36XywmFaA7EkJD/P8ozgOmfWbyieko/VFzrGpXqYtIRFOdtCx1jF6vufZZbdT0NLCZ807KMhEEPalBdZlg60/Sdlnn14Ad+VnezxbKGsbh8wn+VZ63Hb+vcrpcZnI2XAueXuNcqa8iFSnXagkb3P5bLybSBrG2V/XEGm1z4W5bsF9dScWkfZJYBa1j6yFTfllH/6dLCpGzeZjXOW4LAvAXYyL3kuDuqpqvwhe0Jz8o/l7Gdjci5ZaXDMHoOVblovvkRZbT0A+dO347ZWDTpr75W3eP0vO4JvOnexecZ8JscWA6U8HJeLtbecQ3/eEG5ut+ZXsNg5lzygLq2YdBt4m37ILk996GNsZ2NhMSmutVBfwsmuYhbmANeaBzTjFxJtBXo+53+rQjV/3HoeS8mju/s2/GrljhplKP/EG//zJ5Y+/RAr3urj0q88eL44wHvPLOOVg2M9CPRNuvFdum6Rv/7rvuely/QOWJVsiwViySs8Sd51uzkcwFfvUhP3LFlT97M1pZ6m9sN4vtrBHm/9oG17r13++k1f8B+rJRFYi9MGWOezeNFJFl93Dmca4EjEDtiT9/PT5Os2sOUM81lLONa8kpQpS1i9sIKOzhOcbSul3LOFxmH2krvDqPuUB577a+Leeoptz6xhRdEDPPT4Rh56/Cme2rmS3CdvV69y9Lr7AOo56dnByevXdQJdO9ldvg936iryk5eQMXkti/NXMb9tB//9xc4R9Nsu09sH9FZyrPr3XBh8Bq5eAaKC1Zq3ZQuHWq/bvXf4az011St4pXEhD6esIds1l7xp88mbsoZPPCv4sG3YXcVwo+xTruG/jp7gxM6ldP3oUXKnxhGx5n0asZPzxGY2jk0Zb4sL3a2AHWtEKVVNoZ8rMLGvkpp2IONVNjz4M9zeHeypXMavjy6mqisSR/wTzBvRGUpp8wMWG5YrA87Ra2di5z7quoD2FjoAq8X+9fqmSoiAhjbPMMcuZtncMtalJfJx9QZ2lRfwr7Xl+Ky5zJpSPOrfjYyvUTdfvY5McmbnsO3SadbW+7Cn55ACUO+5baOvY6Gq/hCPxK0iK6uM1XGf03EtkfTEhSRYaknrXkaZNQ1ndC6Fc97B1VZFhy2PjEigp4XrK7Wb2d9Yzpys+eTnv4PjYg0+axZuVz7OQDGRH6/jWNNOaqbNJz/+eTb81Xzqu304Yr9PVnQsrZPref3LSqCV7gAkOJ5g+XQ/x1tKqGkHu30GabHPs8GWT10XOJ252IFGX+Xt+6XJHTHKUJ5hy99vIfXtF1ian0nObKDXh/f4+7zw403crl5loG8MDnLpBXbX2FmduYSs5BkA9PbUUlW9gbLLwOVn+Mj2Gx525TMrLR8IXjL5pPYlRvxnX7+ODyJ38VjqfGalho7hK+dY9bpQX7ecsuO/YuLsnzAzrpiECODaFVqbXmL3l/1n2YHnUjEuVy5503JJtpVQc7KU907lsXrGStxxq5gXH9qvdQdl1fVDFkXuHhGEhyfuLD2jR2RompAuYhiFUsQwCqWIYRRKEcMolCKGUShFDKNQihhGoRQxjFUX8UXMoppSxDAKpYhhFEoRwyiUIoZRKEUMo1CKGEahFDGMQiliGIVSxDAKpYhhFEoRwyiUIoZRKEUMo1CKGEahFDGMQiliGIVSxDAKpYhhFEoRwyiUIoZRKEUMo1CKGEahFDGMQiliGIVSxDAKpYhhFEoRw1jHuwBy67Jdi8hwFjLNWQBAh7+Zs94KqprK6PA3j3PpZLQith2c2TfehZCRsVmiWTrz58RHZQ653h+4yrFzO6luO3iHSyZjSTXlXeL6QNa0HeSstwJ/4CopMbPJdhXhsCWywL0Jf+AqZ70V41xi+bYUyrtEXnIx8VGZ9AQ62V/7Sy60V4XXXWivoqqplL9xb2Kas4AF7k1c+OKf8QeujmOJ5dvSQM9dIi9pGQCfnd8dDuTs5L/loWk/JjYyFX/gKkfqXqMn0InNEk22q2g8iyujoJrSIDZLNBnOB3HYkgYtd0QmYbNEA4T7i9PjHqYg/R8AiIuayt4vXww1W4+R5SoiO2ERNsukQcfxB67S2HGCts4zd+DTyLelUBrCYUti6cyf3xDIgTr8LeEmaUSEJbx8QsTX/41tnXVkuSA+KvOmA0JH617TYJDBFEpDzJ+6HoctiZ5AJ21dQ9dkVU2l4de1F48w2Z5KbGQqXzR9EF5e3XYQ1yQ3jsgbw22zRBMf5Q72OdurdPnEUAqlIVJi8gA4UvfqiEdOPzu/+4Zl/X3Lm1me+wrxUW5SY/KoblMoTaSBHkP09xlv94hp//GHqknFDAqliGEUShHDKJTfMRc76wBobD8+ziWRm9FAz3dM+bk3+ez8bs32MZhCabhIq4OFmT8hLTaf5o4vb1ifGJ1Nw5VKDp3+D3qu+UZ0TAXSbAql4TKchaTHPgBAsiNnyG2mTp7HNGcBtRePDLF/AfFRbmzWaGyWaDq6m0O3ev1Z4TSUQmm4U60f0dfXx0RL5E238Qe6bgjk3CmryUtaFr7Ucr0FBCcafH7+D5pEYBiF8i5Q3XZgxNs6bEksznp+0BS7xo6q8CR2V5Sb1JjZTLRMIttVRIazgKN1r+lWL4MolPcQhy2J5bnbsVmi6Ql0cry5lKqm0iGbqRnOAgqnPonDlsijM7ZqPqxBFMq7wJSY+7FMsA1adtl3nivdFwYtW5y1NRzIvadeHPZukLPeCi60V4XvwSycup6LXXW6g8QACqXhpsc9zKLpzw257veVPwrXgnOnrCY+yn3TQM6dshpXlJsjda+F9+mfJ7t05i+Ij3JTmL6Ovaf+5fZ+IPlGmjxguNbO03h95+jsaQv/AJy+eHRQs3R2UjEAx5tLh6zt5qb+gGnOAlyT3IOW+wNX2V/zMgApMbNJDU2Ml/GjmtJwV7ov8H7Vs8Nuk+EsYGLohuaBt3eNVIe/ma+8FUxzFpDhLBz0qBG581RT3gPiJwVHWhs7qr71tcf+0df462pSufNUU94DYmyJACOq4R6/7xfh143tx8N9yP5rlSkONV/Hm0JpuGibi6LpzzFxwtfP24mNTKbm4mE+Pvs6wE0nCAzU4W/BEQpvP9ek6WNbWBkTCqXhUmNmkxQ964blMxO+z6cN7+DrvUxbVx3TnAXhGnMoe05svmGQp727Jfy6P9gXu+rGqOTybSmUhqtpO0xvoHuI65QN+HovA9DRHWp6DjNy6g9cHbZ5m9H/FQjdmnI33hTKu0Cdt3zY9We9FSwgOKMnNSbvlkdPbZbo8PeSaLrd+NPo6z3AH7hKTWiK3AL3phH1MQd6YMrq8EwghXL8KZT3iM/O/4GeQCcOWxKFU9ePeL9sVxG5oaevl597U7dzGUChvEd0+JspP/cmEAza8tztwz7Y2WaJpnDqeha4NwHBLwzShHQzqE9piItddcRHuclyFXEr303Y0d0SvsZYPaAJGx+VyQ/u/x1feSs46z1Guz840mqzRJMak0e2qyjczK1pOzjss2LlztL3UxoiL6n4lpqdA33g2TJovqtrUiaFU9d/40SAnkAn5efeVA1pGNWUhqhqDs5ZzUsuvuEi/3B6Ap109w7uB7Z1nmHvly+S4SwIPg5kUibxUcFrlB3+Fi52nuGstyL8/ZZiFtWUIobRQI+IYRRKEcMolCKGUShFDKNQihhGoRQxjEIpYhiFUsQwCqWIYRRKEcMolCKGUShFDKNQihhGoRQxjEIpYhiFUsQwCqWIYRRKEcMolCKGUShFDKNQihhGoRQxjEIpYhiFUsQwCqWIYRRKEcMolCKGUShFDKNQihhGoRQxjEIpYhiFUsQwCqWIYRRKEcMolCKGUShFDKNQihhGoRQxjEIpYhiFUsQwCqWIYRRKEcMolCKGUShFDKNQihhGoRQxjEIpYhiFUsQwCqWIYRRKEcMolCKGUShFDKNQihhGoRQxzASHNXW8yyAiA0x4MO5ZFEwRMzisqfw/K1LSbj27aAEAAAAASUVORK5CYII=;" vertex="1" parent="NkwQf3qtkCEpOkier5qr-3">
          <mxGeometry x="57.07" y="372" width="180.15" height="118" as="geometry" />
        </mxCell>
        <mxCell id="NkwQf3qtkCEpOkier5qr-5" value="" style="shape=image;verticalLabelPosition=bottom;labelBackgroundColor=default;verticalAlign=top;aspect=fixed;imageAspect=0;image=data:image/png,iVBORw0KGgoAAAANSUhEUgAAAOUAAACVCAYAAACn6z3XAAAPc0lEQVR4nO3df0yUd4LH8bcFhwEGGPk5KFZY0ALTrdC6Qtpe1bauZzXZ3kqqKblcbf+wTXt3m9Rt/7A219a9xJ6963bbbE2utZccl2roxubQi6uttb1uxPVW2jqAFQvWQX4IMsAIA4LcHzMgP5QfMuh3zOeVGJlnvs/zfOeBD8/3+X6/z8Osf3lv68D2f95BS303N9O2w3fd1P2JhAJbeCqzEudFDtzsQIJCKXI9d9yKQIrI9d1xqysgIiMplCKGUShFDKNQihhGoRQxjEIpYhiFUsQw1w3li5+3MTAwQOWHo974sJKBgQHaPn9xBqqzkeIHq9mydNuYd9YsrWbLgx9RMAN7NVFB3jG2LN/HmltdEbnpdKYUMYxCKWKY8Olu4Pk/tvHuSju+mioaHDlk2ABvLZ///gUeeWl/EKp4fVmZH7EqtRB7ODDQg6/rIEdObuZ4N8A2Ni0vwubZzlsVuwJrjF4WeH2pAq81j8Qw8La+wm9rInj87n/krqhYwmcBAx20tH3CZ99up2ZMLZbx6D0vsXhOJtZZ/np4O0o5VP0GruH16K7EZ8nFHhbYXvNv2V1VggeANJbk7GRZUibWO4B+N42943zw7H1scWTivXSG8KjAfi+fwVW7ib3n3YC/+fuovZfGdnDEJcJAJceP/JIDLOPRvK0sjkvzr3elg5YLw+sCRG5k3U+fIzsqFgCfrxJfeC723lJ+c+yV6x+370pxLPgdv0hbSeJs/6Z8PRWcPLOZA83usd8zoK+nklNn/8Ff78jiKRz329e0z5TWwMG1ZuUwp6WKqupGfLYMHv71B+zbON2tX58942PWzS/E1l9BdUMpFW1uiF7Lqnt2kDXFbVmjfwLtpRyvL+WbC6U8kP0SzmjwtPmXVXf0Yo/fyKrcwjHr5v30NxTEZ0LXESrqS6hocxMeV8za7GdH7iMyjb72UioajtDSH0tiyks8vmDws+zgkZRMwi/7P4vLayUxMnbCetuik/C0lFLRcBRPWCbOrHd4NHJ4iUQSrW6q60s43vDfnCKN5fe+Q4E9ib6Og1Q0lFLTDYkpWynOWRZYp5A1d/+K7KgIvO1lHK8vo3VW5lCIxjtuOHayPmMl9isV/n1eqKBvdh5LFm3z9wXM2cGqwe9ZfQnHm47gCcvFmbmDB2BKx/12NuGZMmfjAAOTCVfdHyjOWMd+4Jn9Dfz7agf3/+2LsOutqdcqqogty4vGLu+7+uWShDzCByo5XrGBA4E59fX3/C9r4h+iYB7U1E9+d30d/8XOb98eer1mfgT0n+HM6Vc41A1QxPKcQiK8Y9dtPP+fHO+z0lT1NhUApDG74BDO6EIKeJ/ya+2j6yNezCwkLnYtUOb/LLhxVW9gbxtAIesKPyLbOn69vRff5ANXKQD2vj+waX4umQvSOFTtDpRwU1O9gU/aBtd4mUdiIsBbwn+ceCNwZqxg/f3byIrfyBKOcDyyiPToUWXcO3i+YC32CY7bksX52HDjqtjA3sD3pDznEM+n5JI1D8pJxAr4On/PJ6ePAJA+fyt5tk4uAfPCJ3/cb2cThtLnrqLWM2yBPYOctLE/LZ7aPzHYWP3gcCU7Vjuwp+bcWK26D7K37sCIRdnpO8iePfhqIylWoL8Dz7CbXCo63ayKz8MWM7Xd9V1pH/H668YjpGcso2DpNyzuqcLdeoDyus3UXeOGmsZeWBb3JEuWPzuyp7RvZLkR+xjw/xcelgSsJcEC9LlpGArPUdy+jglD6estHfrac/4HvPNzsVlXAoPN9R58bcNWSMvBPgt8fe6rTVVKafJtJSs2iRSABH9wPN0Hr5bpduHpu0YoRx23FEssEIuzoBrnqLI2G3BqFycduSxJ3MmWB1to8R7lVOMH7K2qAqBuCsf9djZhKGsP5pL79LAFH1YysPEGwzZZA+24mspGLEpfsGPYq17/D/asmdm959wm3mspJC+1CGdCIelzXyYr9Rlqajew+5x7WMlC1uT8iixrBy0XSzjZdAIPo3+BGGRgCmWvuCcuM0rPAICb6qq3qR79XhfAEQ7831K+SXiWxfOWkxWzlgey13JfWgmfHn+Dmkkf99tb0Hpf7Rn381jg62dW5GIHfJ7GYG1+lBKaeoCwWOzDrqHyYtIIpwNv59Vl1vDkqy8cSUxw8gHggbv3sSmrkLofNlPy5wfZfqwMzx2JZKUUjyqZg90CdP2Rnd++wddNZbiarISHTeWzlNHaC4SnkTpncFkhadaJrymtlqtNfHvaT/zH/HLV9Veor8IzANbwtGFnvSJSrBFw+QJNAJc68QG2qOKrZSKd17ymHK2hpwWwEj6rDFdT4F8HzB6ooKYTSNnGUz/7mPtmv8+Bbzfw3tfZHPJ0YLWt4r6UqRz329u0e1+HpP+SktpKGnxzyMh2AB7+tOeVoG1+tEONR1mcVUhe3sfYLtbgi8gnOz4RfAcprwc4SktPEYm2dWy6x0JddzKpiYXYAN8E246MSCMxZiPF+ZnUeJux2fzreXvPjCp5AV8/EPVznnH24O5NJjG+gHQLY5qv436WCxXcZ8vjruyPebzFBbZVZE3it4ct/iWecebR2JdGekouXDlD3fmj46yxnZOedTjmFPF3+cnUdLVji/05WRbwXNjFcYC2Euq7V+KMeZLi/CRqvJCauHJM0/VaXO4veHBOEVlZ+1g/5wTeK0mkJS0jMewM83rWsI844qLzmJe1D1vcUTykkW6LhYFKPB0QmTbZ4357C1ooPTUnaHPkkzN8SOTfgrX1a3A/xacR/u717NQ8/5DIpTIOnNwc6D4v45PvnRQvfJL0+GISAW97Jd6I3Ak/9KHKN7HlPkdm7EqWxAEDHXjbSzh0unRUyTI+O5OPfWERjqRiHICv6yD13SuZN5Xm69nNlEW8w1878nDOy/MPiXR34IgcfzWv1409sQhHYEik+sdN7Gsbf53yb35NTN5WFsetJC8O/5BI0xvsrjoSKHGUvZVvE5bzNNlxa1kSB31dFbT05ZE40edoe4XdNVbWZ6wkKyUTgL7LZ3Cd3sS+dqD979ln28kjjkKyUouH3q+u2+LvrJv0cb+9zWJqVxpjvPh5GztW2PEc3sychyff06pn9ExDYJyypTGbnaMv3mbCnN/x/OKV2DreZ/tf3p64vExL8JqvcntJKOaB6CTs0TmkJSzDTgd1zQrkzTDtUPoGr536JrpSk6CbVhtnAklPstwxvAm6mb1TGPuVGzft5uuNUvNV5No0IV3EMAqliGEUShHDKJQihlEoRQwTrl5QEbPoTCliGIVSxDAKpYhhFEoRwyiUIoZRKEUMo1CKGEahFDGMQiliGIVSxDAKpYhhFEoRwyiUIoZRKEUMo1CKGEahFDGMQiliGIVSxDAKpYhhFEoRwyiUIoZRKEUMo1CKGEahFDGMQiliGIVSxDAKpYhhpv3n1cUMCVEZZCUsJyEynfioDCxh0QB4e5u52FVHQ+dJznr+jLe3+RbXVCYya9vhu27Jn1eX4FhgX0rB/I3YLMmTKt/YeZJy90e0dtXOcM3kRimUIcoSFs1D6S9wp33p0LKL3XWc9RzjYlctvf2XhsrFR2WwMGEFNkvSUNkT53dzomHPTa+3TEyhDEGWsGgeu+s14iMzAPjRc4wTDXsmPPulxjjJn7seh805tN6Xde8OBVjMEPbwU4n/dKsrIZM3PJCX+7v4ovZfOdGwh+7LnqEy+XPXExEWTbuvfsS63t4LnG49TG9/F2lx+cRZ52G3zuOHtq9v9seQcaj3NcQ8mvXyUCD3f/8qZz3HRryfGuMkP/UJCuZvvO42XM1lfFX3LgB32pdSOP/pGa2zTI1CGUKcyWuHmp77v3913ObqRB0/p1sPU35uFwC5yWtIiMoIXkVlWhTKEHLv3PUAk7p+nAxXcxmNXhcA+alPTHt7EhwKZYhYmLCC2WFRXO7vwtVUFrTtnji/G/A3Yyc7rCIzS6EMEQsCQx9nPeVB7S1t6HTh7b0wYh9yaymUISI15m6AMR07wXC69XBgH86gb1umTqEMATZLMrPDogD/mS3YvD3+qXfxUelB37ZMnUIZAmIirs7EmYmB/sH5sLqmNIMmpN/GHlv02phlX9a9p0nphlMoQ0Bvf9cNlXUErkOHiwiPxts7ctngHSWXp7AfmTkKZQgYPiaZGuMc97qytauWT6s2Ywlcgw7X2991zfHN+MDEgdZu3TliAoUyRDR6XThsThwxd0/Y2TPViQWDQyEz0YkkU6eOnhBxts0/FLIwYXlQt2uzJBMf6e91/XEGhltk6hTKEDE4lmizJAd1PLEwMHG90evSjc+GUCgNYLMkTzghvLf/El/VvcuPnmO0dtUFZb8L7EuHbpIO5tQ9mR5dUxrgb3LfYnZYFHu+e27c4YrTrYeHzpjTlRCVwV+lvwD4m60zMVNIbozOlAYYnK0zfJLATEqNcbJ60WtYwqK52F3Hl4F7K8UMOlMaZPWi18d9/2J3LeXndt1wL6klLJr8uU/gTF4b2F4d+0+9qseBGEahDCHxkRmsXvQ6lc37OHruw0mvN/j4yYUJK4YmCjR6XRyq2a5AGkihNMj/fP/qdc+CqTFOnMlrudO+lNzkNYHnuE58HZgQlcEvcnYMvb7c38Vfzu/G1ayOHVMplCGiodNFQ6eLh9JfICthBflzn5hUKDt7mmn0uujtu8TZQIeOzo5mUygNN/h818Fpc5Zwf/MzPjLjmhPOe/u7OOsp53TrF4HXl9h/6tWbV2GZNoXScAlR6SMeuDzctSacg//RHvlz1/PZmTc1ISAEKZSGa+h08VXdu9giJnevY0RYdOBp6MmsXvQae757Ts3VEKNQhoCpThg43XqYxxa9jiUsmnvnrp9ST63cegqlQeIj0wnW35D4vvXzQG/tzxTKEKNQGqRgBp5Urkd8hB6F0iAXu+uCfv13MUiT1+XmUSgNUn7uQ91oLAqlCS5212EJiw7aLVkS2vT3KUUMo1u3RAyjUIoYRqEUMYxCKWIYhVLEMAqliGEUShHDKJQihlEoRQyjUIoYRqEUMYxCKWIYhVLEMAqliGEUShHDKJQihlEoRQyjUIoYRqEUMYxCKWIYhVLEMAqliGEUShHDKJQihlEoRQyjUIoYRqEUMYxCKWIYhVLEMAqliGEUShHDKJQihlEoRQyjUIoYRqEUMYxCKWIYhVLEMAqliGEUShHDKJQihlEoRQyjUIoYRqEUMYxCKWIYhVLEMAqliGEUShHDKJQihlEoRQyjUIoYRqEUMYxCKWIYhVLEMAqliGHusIWn3uo6iMgw/w8Z6FuXlV68jwAAAABJRU5ErkJggg==;" vertex="1" parent="NkwQf3qtkCEpOkier5qr-3">
          <mxGeometry x="57.07" y="52" width="181.36" height="118" as="geometry" />
        </mxCell>
        <mxCell id="NkwQf3qtkCEpOkier5qr-6" value="" style="shape=image;verticalLabelPosition=bottom;labelBackgroundColor=default;verticalAlign=top;aspect=fixed;imageAspect=0;image=data:image/png,iVBORw0KGgoAAAANSUhEUgAAAOYAAACWCAYAAADKSPR6AAAKNElEQVR4nO3df0zU9x3H8Sf0zjvgxFOgAqsOIuJovERUGq/RVV0kqUGT2qyLLjXpXDWttYm1tUnt1mbrfvTnkrpuQWeXlKz9w6zLhrWJJrQLi5hRpSlNWYHkWLVCJ46DHnJwJ7c/7lDQquiQ77v19UhIvLvv3edzlzz5fu9zX860PTtfTDz3yq/5LH6GydTOs5M6nsjXwmwfiefvJG22Kycx2VGCwhS5rNk+0p2IUkSu4LMI6U7PQUQupTBFDFKYIgYpTBGDFKaIQQpTxCCFKWLQFcL8A58kEiQu/okN0Fn/WzaUJLfaUddDIpHgk9cnYjpBCnueYU7iop/YLorqV+NLjcnrW5mTeJLC7RMxZpK/7knmJLaSN3EP+X9KvRYta52eiDjAdfVNonR9HKIndWl6SRn5S7eyb3+UhvLHb8yswicJP/pPBgFum4VvdRmZSyu4tSbKYLCO2I0ZVcSMcRzKhngncDu3p34KAq/RFAfvgtXsumHTinGupplITTORXx2ka9k+vvwXpM0vZuoNG1PEjnHsMS/SHqInAvjHXj09cITOWJB8FxAOUbf3Eb638+CETBLCDEcBn5dbvurmkgpmvvVdshb4SHMB8ShDtUf4z7r65F6XtcxKlONq7+Jcfj5uX2qbt+ro2tg4ag/sxVO/gzlLfQAMd4Toe/QNztSO3D6XnLrVZC/zk+4ColGG9o99DPdD65j5VBme21IvbXc3/a/+ma6fdwHJQ+acFXEG/wGepT6Id9Hrrqa7pIKZf1lJ1ne8pLkg0dFFfIJePfn6ucbFn3I2vbGJO/1AJExo1C35i4N4T7bQ0hEGfzErn9jHOw9MxBTzyX51E9kLgPZOIpfc7idnfyW+xV6Gj7bQu7uR/qNx3PesZOabxWO2TC/xk6hvom9vG0MRL1Pur+TWn4zewodnfpSzuxvpfbcbiorx79lAdmqcGQ334V/hI3G0hb69TZxthyn3r6bgjbnJu5dUMvOVAJ7cKNH9jfTubiEa9ZP1sx8wc9XYcaYUhenf3Ujv3o/ox8+Mmkp8810MH22hb28zg65c3Bf98pObxzj2mGVsSiTYNOa6ME17n+YXwI6Rqz58jYXljxCimOcaPmHXknzuXL8V/vjatc/KX0xO4hlyRl/XdZLwY28z8BWbn/1dA+nlA0Qebkjd3kNhTyUZ5QEY9esjcbSRE6vrkhfaNlL8QjHuigDQnNoizuDeP9G5MwzAufpdzFg6C9826Nt9B5mLXfBhI58vO5jaQ56goHMtmXcHmUYbvbTR9xsvU3qa6X4xNe6J5DhT1gOHL7x+Z3+0j67zlyvJWeyC9ma+WJZ6jqvuY/ahMtzX/urJN8A1Lv5E6Ww5wsHfv8zL74XGbBVqezuVQIinW0LsWlKGf1b59c1q9OIPQPg0kdquy21MPOLF8/0g2Q9Vjr3porskBkZlnTpOTPP5Rm0RIbYnfP5ST1uYGUtzuSUAbM/H7YLhnp5Rh75NDHasJnPJVKYAtPcw7C9g6vZypr1wpScY59zhURfvz8XlguETnRd+8Rw+QTysMG9W4wgzufjz4xs/l1FSiz/j2jZI3u8q8HgjRGuaiBw+zTkKmPZqEO9ETmk8b/i2ryXvoXzSTp4kUvMR/S1RCNxB3hO3TeRM5CYwYScYFM9dx8g7ul1zk/8Kn2iaqIe/gjxu8cNwwxE+31hHb00zkQYXab6r3/NSPtybL7yx8xf5gAjxemB3F7E4pE+fPmovVo6nyAXdXzIEEJhKOlGir+zji6caidQ0M+h1Xf1FrukmHof0WQVkjFy3ahYuvce8aV37quzlLNjK8dBKOimgrMgLhKjbfR3vL69ZlEQU0oN3ULhnOkP48a4pxnNdz8yF58EfUuANESspZuoKL7Q3E64BOETkvXI8q8r5Vr2P/pYormAZmfkQ299AL0B3nARevA9vJK+4G0pmkbUifxzjHqL/aAWepWXMrF9HpAk898zVYexNbML2mF0f1NGTX0ZZkR/CIQ7+9F7urb36/b5SHBLj3vgQp3/ZRizqJ+PBCqY9UIyr/QSD4avf81IRBj/2krmtgml350JHG/9df2HBKVz5NuH3IqQtKSP7wXIyS2Co5iCd97UlN9j5V3reDZMoKiZ7WwXZy3zE6rsYHsfIPQ/8jd4P4qQvCTBtWwBPvJvYdT0H+SZI41oamED6zh+Ry9NJ7CIGKUwRgxSmiEEKU8QghSlikMIUMUhhihikMEUMcumDfhF7tMcUMUhhihikMEUMUpgiBilMEYMUpohBClPEIIUpYpDCFDFIYYoYpDBFDFKYIgYpTBGDFKaIQQpTxCCFKWKQwhQxSGGKGKQwRQxSmCIGKUwRgxSmiEEKU8QghSlikMIUMUhhihikMEUMcjk9AbnAt34+WWtKcZfmTvrYsdZu+mtbibz18aSPLZdSmEb4NgTwPxZ0bHx3aS7+HbmQlkbkzWbH5iFJCtOIrKq5AJw90Ep/7aeTP/6aeWRWlZJVNVdhGqAwjRg5fO2v/ZTBY52OzCGzypnDaLmUFn9EDFKYIgbpUNaIweOn8CwsxL8jyMD7/5708TOWf/v8PMR5CtOIvupj5FUX4i7NdfR9Xl/1McfGlgvS2nk24fQkJMldmpP8HHNezqSPHfv0DP21rcRaz0z62HIphSlikBZ/RAxSmCIGKUwRg7Qqa4hnUQHZmxc5Nn7fnmOOnXUkYylMIzKWF5HzUqWjc8irLuTM44cYeL/D0XmIwjQje/NCAAb+3uHISeS+DQEy7ioie/NChWmAwjRi5KSCyJvNjh1OZtxVpJPYjdDij4hBClPEIB3KGhFrPYO7NAff+gA4cC6Wb33g/DzEeQrTiL49x8h5qZKM5UVkLC9ydB7iPB3KGjHwfgent9QyePwUw5GhSR17ODLE4PFTnN5SqxVZI3QSu4hB2mOKGKQwRQxSmCIGaVXWEHdpDllVDn6DwQF9g4EVWvwxwrOogLzqNU5PI7kyrL8wcZz2mEZkb0n+uVes9YwjH1lkLC/CXZpD9pZFnN58YNLHl7EUphGehYUAhF8+4sgea/DYKfKq15yfhzhLiz8iBilMEYN0KGvEyEnsmVWljpzEnllVen4e4jyFaUT/gVb8jwXJWjOPrDXzHJ2HOE9hGjHydSJZVaW4Sx34HLM1+Tmm/m9MG/Q5pohBWvwRMUhhihikMEUMUpgiBilMEYMUpohBClPEIIUpYpDCFDFIYYoYpDBFDFKYIgYpTBGDFKaIQQpTxCCFKWKQwhQxSGGKGKQwRQxSmCIGKUwRgxSmiEEKU8QghSlikMIUMUhhihikMEUMUpgiBilMEYMUpohBClPEIIUpYpDCFDFIYYoYpDBFDFKYIgYpTBGDFKaIQQpTxCCFKWKQwhQxSGGKGKQwRQxSmCIGKUwRgxSmiEEKU8QghSlikMIUMUhhihikMEUMUpgiBilMEYMUpohB6cz2OT0HERltto/04eeDKE4RI2b7GH4+yP8AK2n+NOuKJO0AAAAASUVORK5CYII=;" vertex="1" parent="NkwQf3qtkCEpOkier5qr-3">
          <mxGeometry x="57.5" y="212" width="180.93" height="118" as="geometry" />
        </mxCell>
        <mxCell id="NkwQf3qtkCEpOkier5qr-18" value="" style="shape=image;verticalLabelPosition=bottom;labelBackgroundColor=default;verticalAlign=top;aspect=fixed;imageAspect=0;image=data:image/jpeg,/9j/4AAQSkZJRgABAgEAYABgAAD//gASTEVBRFRPT0xTIHYyMC4wAP/bAIQABQUFCAUIDAcHDAwJCQkMDQwMDAwNDQ0NDQ0NDQ0NDQ0NDQ0NDQ0NDQ0NDQ0NDQ0NDQ0NDQ0NDQ0NDQ0NDQ0NDQEFCAgKBwoMBwcMDQwKDA0NDQ0NDQ0NDQ0NDQ0NDQ0NDQ0NDQ0NDQ0NDQ0NDQ0NDQ0NDQ0NDQ0NDQ0NDQ0NDQ0N/8QBogAAAQUBAQEBAQEAAAAAAAAAAAECAwQFBgcICQoLAQADAQEBAQEBAQEBAAAAAAAAAQIDBAUGBwgJCgsQAAIBAwMCBAMFBQQEAAABfQECAwAEEQUSITFBBhNRYQcicRQygZGhCCNCscEVUtHwJDNicoIJChYXGBkaJSYnKCkqNDU2Nzg5OkNERUZHSElKU1RVVldYWVpjZGVmZ2hpanN0dXZ3eHl6g4SFhoeIiYqSk5SVlpeYmZqio6Slpqeoqaqys7S1tre4ubrCw8TFxsfIycrS09TV1tfY2drh4uPk5ebn6Onq8fLz9PX29/j5+hEAAgECBAQDBAcFBAQAAQJ3AAECAxEEBSExBhJBUQdhcRMiMoEIFEKRobHBCSMzUvAVYnLRChYkNOEl8RcYGRomJygpKjU2Nzg5OkNERUZHSElKU1RVVldYWVpjZGVmZ2hpanN0dXZ3eHl6goOEhYaHiImKkpOUlZaXmJmaoqOkpaanqKmqsrO0tba3uLm6wsPExcbHyMnK0tPU1dbX2Nna4uPk5ebn6Onq8vP09fb3+Pn6/8AAEQgAiADsAwERAAIRAQMRAf/aAAwDAQACEQMRAD8A8H8c+OPEEPiDU4otTv4o4r+6jRI7qeNFRJ3RFVEdVACqBwOep5yaBt3OV/4TzxH/ANBXUv8AwNuf/jtAg/4TzxH/ANBXUv8AwNuf/jtAHc+DPGOu3Xn+fqN/Lt8rG+7nbGfMzjdIcZwM464FenhIxlzcyTty7pPufo3DGGoYn6z9YpU6nL7Hl54Rna/tb25k7Xsr23sux3H/AAk2rf8AP7d/+BE3/wAXXp+yp/yR/wDAV/kfo39nYL/oFw//AIJp/wDyIf8ACTat/wA/t3/4ETf/ABdHsqf8kf8AwFf5B/Z2C/6BcP8A+Caf/wAiH/CTat/z+3f/AIETf/F0eyp/yR/8BX+Qf2dgv+gXD/8Agmn/APIh/wAJNq3/AD+3f/gRN/8AF0eyp/yR/wDAV/kH9nYL/oFw/wD4Jp//ACIf8JNq3/P7d/8AgRN/8XR7Kn/JH/wFf5B/Z2C/6BcP/wCCaf8A8iH/AAk2rf8AP7d/+BE3/wAXR7Kn/JH/AMBX+Qf2dgv+gXD/APgmn/8AIh/wk2rf8/t3/wCBE3/xdHsqf8kf/AV/kH9nYL/oFw//AIJp/wDyIf8ACTat/wA/t3/4ETf/ABdHsqf8kf8AwFf5B/Z2C/6BcP8A+Caf/wAiH/CTat/z+3f/AIETf/F0eyp/yR/8BX+Qf2dgv+gXD/8Agmn/APIh/wAJNq3/AD+3f/gRN/8AF0eyp/yR/wDAV/kH9nYL/oFw/wD4Jp//ACIf8JNq3/P7d/8AgRN/8XR7Kn/JH/wFf5B/Z2C/6BcP/wCCaf8A8iH/AAk2rf8AP7d/+BE3/wAXR7Kn/JH/AMBX+Qf2dgv+gXD/APgmn/8AIh/wk2rf8/t3/wCBE3/xdHsqf8kf/AV/kH9nYL/oFw//AIJp/wDyIf8ACTat/wA/t3/4ETf/ABdHsqf8kf8AwFf5B/Z2C/6BcP8A+Caf/wAiH/CTat/z+3f/AIETf/F0eyp/yR/8BX+Qf2dgv+gXD/8Agmn/APIh/wAJNq3/AD+3f/gRN/8AF0eyp/yR/wDAV/kH9nYL/oFw/wD4Jp//ACIf8JNq3/P7d/8AgRN/8XR7Kn/JH/wFf5B/Z2C/6BcP/wCCaf8A8iH/AAk2rf8AP7d/+BE3/wAXR7Kn/JH/AMBX+Qf2dgv+gXD/APgmn/8AIh/wk2rf8/t3/wCBE3/xdHsqf8kf/AV/kH9nYL/oFw//AIJp/wDyIf8ACTat/wA/t3/4ETf/ABdHsqf8kf8AwFf5B/Z2C/6BcP8A+Caf/wAiH/CTat/z+3f/AIETf/F0eyp/yR/8BX+Qf2dgv+gXD/8Agmn/APIh/wAJNq3/AD+3f/gRN/8AF0eyp/yR/wDAV/kH9nYL/oFw/wD4Jp//ACIf8JNq3/P7d/8AgRN/8XR7Kn/JH/wFf5B/Z2C/6BcP/wCCaf8A8iH/AAk2rf8AP7d/+BE3/wAXR7Kn/JH/AMBX+Qf2dgv+gXD/APgmn/8AIh/wk2rf8/t3/wCBE3/xdHsqf8kf/AV/kH9nYL/oFw//AIJp/wDyJ778L9WvL/SpHuZpZWS5dAzuzNt8uJsFiSTyx6k+nQCvHxMVCaUEkuVPT1Z+TcR0KWFxkIYenCnGVGMnGMVFX56kbpLRaRWy89z41u4I7r4gSQTqssUviFkdHUMjo2oEMrKQQysCQykEEEgjFc1JXnBPbmj+aPhqrapza0ajK33M948T2l/o3iCCwvPD3h630S91iCzt7iOzsjcPE1wCuRFM0iM8SHeXgVcEqygsFpYWPtZxp1tJctSdl19nFyXdWvy3XVN/LqxHLTjKdDWKpxV30nOkue2z92fNyu2lk7vRvzb4nfDSwsf7W1zRL6G4TTtQ8q8sY7VrdbL7RIRFHE+4pKqMREdiIqkED7uK4oNxhSlrKE5Tp8+3vwTlK6erj0Uut4tKzbWtS0pzi17OcadKfJbRxkoxUrpJXl8bVna7u725uB8C/wDLz/2y/wDale/g/t/9u/qfo/CX/MX/ANwP/cx9U6nBc6bp1jc6fZ6W0H9mwzTvPDp7TNJ85dtsxE8hKhfuq245Ay2RWt05zjOU17ySScrWcY9tFq3v67HqYeVKvXxFLE18Wqn1qrCEac8SqahePKrw/dxs292rK17KxR1PwxbamLW5d4tNtYdGt7q6mjhU5kklkRcRIY98srEKCSOFAJ+6DUZ+zU1rJ+0jCKu29YRe+uis3J+d+7XTQx1SgqtGMZ4itPHV6VKEptWhCEJO85KXLCCu7W66LdmUfAccc7vJequmJZR3wvPJYsYpX8uNPs5cMJWlDIF8zAxktkha09taLvF86mocq1u2uZNO3w8urbWna12dazWUoQjCg3ipV50PY86SU6S5qj9ootOEYOMr8t9drJsnj+H8HmTPLfhbGKyiv47hbdmaSGRymDCZFKOGVht3NkgZIycS6zjG7j7yqKna/WSumnbZ6bpbvtrm83nanGGHbrzr1MPKm6qShUppSdpqLUo2ad7Lro7a68fhPStW0zSolu0tJ7qa9hgkNrlrsi4KxGZlkBjAARFDNKVMm0cAmo56inO0eZqnGTjzaRspOVnbXS/RXUdehxPMMThsTjJujKrTpRw86kfbaUE6Sc1TTi1PXmk2lBNR5nqzHsvh2JBBBeXi2uoXxmW2tjC0isYWZP3kwcCLe6EL8j8YPXgU6+7pxclGEZy1s0pLmSS1u+XVrSz0O2rnPK6lSjQdTDUfZ+1qqai1zpP3abi3PlUlf3o6/eLo3w4bWLNZ0nlS4kWYhBZztbo0O793Nd5EcbttI4VwDhclsCipXVO7STioxlfmSbUrfCnrJpPy69NQxOcrC1nSlTi6cZU4uXt6aqNTt70KGspRV77xutdtSuPAsLiwgjvN1/qscEsdv9nIVElbDM83mkYQK7ABMuEIwpK509q+aS5bRhfmlftDm0VtXst7ap3te2jzWcVia06FsPhp1KcqntE3KcNlGHJf3m4q7laPMtWk7Xdc0TTNN8NGSwmS/kXVfKa5+z+TIoW3fMQJZ2aIkLIpD7WLZ2gisoTlKpBtcqlTlJK9/tRtdaWktdGrpPzMsJicTXzFwxNOVGP1NTVL2nPG7rRtOyUUp2bg7xurbtM8uruPrQoAKACgAoAKACgAoAKACgAoAKACgAoAKACgD6I+En/IJm/6+3/9EwV4mL/iL/CvzZ+N8Vf77T/7B4/+nKp8beINS/sbxpd6js837HrU9x5e7bv8m9aTbuw23dtxu2tjOcHpXFCXJJT3s07ejufATjzxlDa6av6qxVn8Yed4pPiryMZ1Eah9m8zPScTeV5vlj027/L99najDP6q0/isprt8cZLz25vnbodGJn9Z6cv7unDv8FONO/Tflvbpe13udn4y+LNr4isL2x0zSo9KfWbqO61Cb7U9w07RMXRVVooli+f5225DNuO0bjXPyNKnTjJqnTlOoo73nUVpO7u1HtHpaKTsmmnK8pVJazlCFO7b0hTtypLa9klfqlqno48t4F/5ef+2X/tSvbwf2/wDt39T9M4S/5i/+4H/uY9e1zW/7ZFovl+V9is4rT727f5Zc+Z91du7f935sY+8c8ehGHI5O/wAUr+nupW/C59/hcN9U9t73N7WvUrbW5edRXLu725d9L32R0kPjpMJb3NoJ7T+zotPnhMu0yeTI0qTJIIyYnVzlV2uBjkk4K5ulfm1s3NTTW8WoqNt9U1e60vtte/lSytq9SjWcKyxNXEQnyXUfaxUJ03HnXNFxVm7xb7LW728eRyTvHJZK2mPZx2P2PzmDCKJ/Mjf7QULeaspZw/l4OcFcgNS9jeLTk+dzU1JaWaXKla/w8ujTeve10SsqlGEZQrtYqNedf23IrOdVctRezUkuSUFGNua+mjs2hl346E6XMEVqIbeaxisIIxKWMEUUnmBmZkzMzMWzxH1HpzLoOSs5a+1jUbt/LoopX0VktbsqnlXs5UakqzlOFepiKjcEvaTqR5XZKXuJJRsve289JtH8c2um2djbXGni6n0qSWW3mNwyASSyGTLRCI7lVthxvySgIYZIqpUpOUpwny80eR6X0s0+q6Nr0b+UYjKqteriKlPEunTxShGrBUlJuMIqNlNzVm1zJvltaVrO1x9j8QxCsE95Zrd6hYmY21yZmjCmZmf97CqES7HZivzpxgdRkw8Pa6py5U4RhLS91Fcqs29Hy6N63epNXJ+Z1KdCs6WGrcntaSgpN8iS9ybknDmUVf3ZfoW9O+JaWqWzXNm9xc2UDwJIt3JFEVfeN7W4jdDLhzuck7zyQCF2qeHupxg1GM4qLXKm0opJWejS0WnTZPV3xrZLKpKqqVeMKVWqqsouhGU004vlVXmjLkvH3YpLl2u7y5ubbxhKl5pt/BGI5NJt4IAC24S+Szkk/KuwSK5UqNxUchienQqaXOpaqd7ra14qP36XXn0fX1P7Oi6GKwtSXNHE1atW6VnB1FGyWru4OKael+q72Nc8WWeo6b/ZVhY/YUa8N4zfaDNlzG0ZUKYk2rhhtAPyhcYJJNZwpOEoylK/LBwWlna6d276vTVvV6diMLgK1DEPGYnEe2l7BUEvZKnaKnGd21OV3dO+mre6SSOGrqPoAoAKACgAoAKACgAoAKACgAoAKACgAoAKACgD6I+En/IJm/6+3/8ARMFeJi/4i/wr82fjfFX++0/+weP/AKcqny14x8Gfatd1Gfz9vm392+PKzjdPI2M+YM4zjOB9KuOE5oqXNa6T+Hur9zqw3C/1mhSxH1nl9pThPl9je3PFStf2qva9r2V+yOb/AOEF/wCnn/yF/wDbKv6n/f8A/Jf+CdX+qX/UX/5Q/wDuwf8ACC/9PP8A5C/+2UfU/wC//wCS/wDBD/VL/qL/APKH/wB2Oh0LQv7E8z955vm7P4NuNu7/AGmznd7YxXVRo+xvre9ultr+b7n1GUZR/ZHtf3vtfa8n2OTl5Of+/K9+fytbrc6Cus+oCgAoAKACgAoAKACgAoAKACgAoAKACgAoAKACgAoAKACgAoAKACgAoAKAPoj4Sf8AIJm/6+3/APRMFeJi/wCIv8K/Nn43xV/vtP8A7B4/+nKp4l4m/wCQte/9fdx/6OevWpfw4f4Y/kj9Qy7/AHLC/wDYPR/9NxMStT1AoAKACgAoAKACgAoAKACgAoAKACgAoAKACgAoAKACgAoAKACgAoAKACgAoAKACgD6I+En/IJm/wCvt/8A0TBXiYv+Iv8ACvzZ+N8Vf77T/wCweP8A6cqniXib/kLXv/X3cf8Ao569al/Dh/hj+SP1DLv9ywv/AGD0f/TcTErU9QKACgAoAKACgAoAKACgAoAKACgAoAKACgAoAKACgAoAKACgAoAKACgAoAKACgAoA+iPhJ/yCZv+vt//AETBXiYv+Iv8K/Nn43xV/vtP/sHj/wCnKp4l4m/5C17/ANfdx/6OevWpfw4f4Y/kj9Qy7/csL/2D0f8A03ExK1PUCgAoAKACgAoAKACgAoAKACgDQ0nS59Zuo7G1AMsxIXccAYUsxJ7AKCTwTgcAniolJQTk9kcuIrwwlKWIrXUIK7srvVpJJd22kdR/whH/AFE9I/8AAz/7XWXtf7k//Af+CeT/AGp/1CYz/wAEf/bFO+8HXVmsMkMtrex3M62yPazeYomblY2JVQGIOe/HJxkU1VTumnGyvqradzalmNKq5xnCrRlTpuq41Ycj9mt5JXd0np67F6TwI8LGOXUdKjkQlWR7vDKwOGVh5fDKcgjsRip9tfVQnb/D/wAE51mqklKGFxcotXUlRumns0+bVNap9ijqPhCfT7V72O5sr2KAoJfss/mmPzDtQuNq4DNwOck9uDVRqKTUWpJva6tex0UcxhWqxw8qVejOak4e1p8ilyq8lHV3aWrOTrc9oKACgAoAKACgAoAKACgAoAKACgD6I+En/IJm/wCvt/8A0TBXiYv+Iv8ACvzZ+N8Vf77T/wCweP8A6cqniXib/kLXv/X3cf8Ao569al/Dh/hj+SP1DLv9ywv/AGD0f/TcTErU9QKACgAoAKACgAoAKACgAoAKAO4+G/8AyMFr/wBtv/SeWuev/Dl8vzR8/nX+4Vv+4f8A6dgcPXQfQHqHh2RYdFs5JCERPEMDMxOAFEKEkk9AByT6Vxz1nJL/AJ9P8z5HGRcsZXjFNt5bUSS3bdRpJebI9c8A65e6jdXMFtvimuZpEbzoBuR5GZTgygjIIOCAR3ANEK0Ixim9Uktn29CsLm2CpYejSqVbThSpxkuSo7SjFJrSDWjXTQeNBvfDWgammpxi3a7NksIMkblzHMzOB5btyqnJzjjOOho541KkOR3tzX0el15k/W6OPx2ElhJOapKu5vlnHlUqaUW+aK3emh5hXYfXBQAUAFABQAUAFABQAUAFABQAUAfRHwk/5BM3/X2//omCvExf8Rf4V+bPxvir/faf/YPH/wBOVTxLxN/yFr3/AK+7j/0c9etS/hw/wx/JH6hl3+5YX/sHo/8ApuJiVqeoFABQAUAFABQAUAFABQAUAFAHafDyZINftHkYIuZVyTgZaCVVGfUsQB6kgVz1lenK3l+aPBziLnga0Ypt2g7LsqkG38km35En/Ct/EH/Pr/5Gt/8A47R7en/N+D/yJ/tnAf8AP7/ynV/+QOi/4R+bT9JtNH1RfIlvNaiOwPGzGF4ViZwUZxwxxz0OMjBFY86lOVSGqVN9Hve55f1yFbFVsdg3zwpYGa5nGSXPGbmovmUXqlf0uZWpah4f027ns/7I8z7NNJFv+3XC7vLcpu27TjdjOMnGcZNXGNSSUvabpP4V1OyhRx9elTr/AF3l9pCM+X6vTduaKla91e17XtqRzQ6TrOk3t7Y2R0+XTzbEEXMk4kE8hjIIkAC7QMgjkn0A5ac4TjGUuZSv0StZX6FRlisLiqGHxFdV4V1V/wCXUKfL7OCkmnFu9721PPq6j6YKACgAoAKACgAoAKACgAoAKACgD6I+En/IJm/6+3/9EwV4mL/iL/CvzZ+N8Vf77T/7B4/+nKp4l4m/5C17/wBfdx/6OevWpfw4f4Y/kj9Qy7/csL/2D0f/AE3ExK1PUCgAoAKACgAoAKACgAoAKACgDpvB2lQ61q9vZXOTDIXLAHBISJ5MZHIBKgEjBwTgg81jVk4Qcluv1djycxrzwmFq16VueKja6vbmnGN7eV7rpfc0v7e8P/8AQG/8qFx/8TU8lT/n5/5Kjl+qY/8A6Dv/AC2pf5m9YWum3q6fq+n2psGXWLe1aPz3nDD5Jd+ZACCDxgDGMk57ZNyjzU5Pm9xu9kvLoebVniKTxOCxNVVk8FVqqXs402n70OW0d11uzhfE/wDyF77/AK/Lj/0c9dNP4I/4V+R9Fgf91w//AF5pf+kRNzQf+Rf1n/uH/wDpQ1Zz/iU/+3vyPPxf+/4H/uZ/9NI4eug+gCgAoAKACgAoAKACgAoAKACgAoA+iPhJ/wAgmb/r7f8A9EwV4mL/AIi/wr82fjfFX++0/wDsHj/6cqniXib/AJC17/193H/o569al/Dh/hj+SP1DLv8AcsL/ANg9H/03ExK1PUCgAoAKACgAoAKACgAoAKACgDe8MawugalBqDqZEhLblXAJDxtGcZ4yA2QDgEjGR1rKpHni4rS/+dzzcdhnjcPUw0WouSVm9rxkpK/k7WNr/ikf+ov/AOSdR++/uf8Akxw/8Kv/AFB/+Vy1J4l0vTbe2tNJjunjt9Qjv3N0YgxaNQvlr5WRtYDqRkH1zxPs5SblNq7i4q1+vXUxjgsTXqVa2NlSUp4eWHiqSm0lJt8z59bpvZbrt1S+vPCuoXEt3KNVWS4keVwv2TaGkYswXJJ2gk4yScdTQlVilFclkrfa6BSp5nQpwoweEcYRjBN+2u1FJK9tL2WtiC61jRrLTbrT9IW9Zr8weY115OEEDmQbPK5JJJBB4xyDxy1GbkpT5fdva1+qt1NKeGxdXEUcTjXQSoqpyql7S7dSPK+bn6LdWOFrpPogoAKACgAoAKACgAoAKACgAoAKAPoj4Sf8gmb/AK+3/wDRMFeJi/4i/wAK/Nn43xV/vtP/ALB4/wDpyqeJeJv+Qte/9fdx/wCjnr1qX8OH+GP5I/UMu/3LC/8AYPR/9NxMStT1AoAKACgAoAKACgAoAKACgAoAKACgAoAKACgAoAKACgAoAKACgAoAKACgAoAKACgD6I+En/IJm/6+3/8ARMFeJi/4i/wr82fjfFX++0/+weP/AKcqniXib/kLXv8A193H/o569al/Dh/hj+SP1DLv9ywv/YPR/wDTcTErU9QKACgAoAKACgAoAKACgAoAKACgAoAKACgAoAKACgAoAKACgAoAKACgAoAKACgAoA+iPhJ/yCZv+vt//RMFeJi/4i/wr82fjfFX++0/+weP/pyqeJeJv+Qte/8AX3cf+jnr1qX8OH+GP5I/UMu/3LC/9g9H/wBNxMStT1AoAKACgAoAKACgAoAKACgAoAKACgAoAKACgAoAKACgAoAKACgAoAKACgAoAKACgD6I+En/ACCZv+vt/wD0TBXiYv8AiL/CvzZ+N8Vf77T/AOweP/pyqeJeJv8AkLXv/X3cf+jnr1qX8OH+GP5I/UMu/wBywv8A2D0f/TcTErU9QKACgAoAKACgAoAKACgAoAKACgAoAKACgAoAKACgAoAKACgAoAKACgAoAKACgAoA+iPhJ/yCZv8Ar7f/ANEwV4mL/iL/AAr82fjfFX++0/8AsHj/AOnKp4l4m/5C17/193H/AKOevWpfw4f4Y/kj9Qy7/csL/wBg9H/03ExK1PUCgAoAKACgAoAKACgAoAKACgAoAKACgAoAKACgAoAKACgAoAKACgAoAKACgAoAKAPoj4Sf8gmb/r7f/wBEwV4mL/iL/CvzZ+N8Vf77T/7B4/8ApyqeKeKEaPV70MCpN1OQCMcNKxB+hBBB7g5r1aX8OFv5V+R+nZa1LBYZxaf7iktO6hFNeqaafZmFWx6wUAFABQAUAFABQAUAFABQAUAFABQAUAFABQAUAFABQAUAFABQAUAFABQAUAFABQB9FfCZGTSJCwIDXUhXIxkeVCMj1GQRn1BHavExf8RW/lX5s/GuKGpY2Ci72oQTt0fPUdn2dmn6NH//2Q==;" vertex="1" parent="NkwQf3qtkCEpOkier5qr-3">
          <mxGeometry x="44.55" y="692" width="186.4" height="107.42" as="geometry" />
        </mxCell>
        <mxCell id="NkwQf3qtkCEpOkier5qr-19" value="" style="endArrow=none;html=1;rounded=0;fontSize=25;" edge="1" parent="NkwQf3qtkCEpOkier5qr-3">
          <mxGeometry width="50" height="50" relative="1" as="geometry">
            <mxPoint x="-264.5" y="672" as="sourcePoint" />
            <mxPoint x="855.4999999999995" y="672" as="targetPoint" />
          </mxGeometry>
        </mxCell>
        <mxCell id="NkwQf3qtkCEpOkier5qr-7" value="Admin" style="swimlane;whiteSpace=wrap;fontSize=25;" vertex="1" parent="1">
          <mxGeometry x="720" y="128" width="284.5" height="822" as="geometry" />
        </mxCell>
        <mxCell id="NkwQf3qtkCEpOkier5qr-8" value="" style="shape=image;verticalLabelPosition=bottom;labelBackgroundColor=default;verticalAlign=top;aspect=fixed;imageAspect=0;image=data:image/png,iVBORw0KGgoAAAANSUhEUgAAAOUAAACVCAYAAACn6z3XAAAPc0lEQVR4nO3df0yUd4LH8bcFhwEGGPk5KFZY0ALTrdC6Qtpe1bauZzXZ3kqqKblcbf+wTXt3m9Rt/7A219a9xJ6963bbbE2utZccl2roxubQi6uttb1uxPVW2jqAFQvWQX4IMsAIA4LcHzMgP5QfMuh3zOeVGJlnvs/zfOeBD8/3+X6/z8Osf3lv68D2f95BS303N9O2w3fd1P2JhAJbeCqzEudFDtzsQIJCKXI9d9yKQIrI9d1xqysgIiMplCKGUShFDKNQihhGoRQxjEIpYhiFUsQw1w3li5+3MTAwQOWHo974sJKBgQHaPn9xBqqzkeIHq9mydNuYd9YsrWbLgx9RMAN7NVFB3jG2LN/HmltdEbnpdKYUMYxCKWKY8Olu4Pk/tvHuSju+mioaHDlk2ABvLZ///gUeeWl/EKp4fVmZH7EqtRB7ODDQg6/rIEdObuZ4N8A2Ni0vwubZzlsVuwJrjF4WeH2pAq81j8Qw8La+wm9rInj87n/krqhYwmcBAx20tH3CZ99up2ZMLZbx6D0vsXhOJtZZ/np4O0o5VP0GruH16K7EZ8nFHhbYXvNv2V1VggeANJbk7GRZUibWO4B+N42943zw7H1scWTivXSG8KjAfi+fwVW7ib3n3YC/+fuovZfGdnDEJcJAJceP/JIDLOPRvK0sjkvzr3elg5YLw+sCRG5k3U+fIzsqFgCfrxJfeC723lJ+c+yV6x+370pxLPgdv0hbSeJs/6Z8PRWcPLOZA83usd8zoK+nklNn/8Ff78jiKRz329e0z5TWwMG1ZuUwp6WKqupGfLYMHv71B+zbON2tX58942PWzS/E1l9BdUMpFW1uiF7Lqnt2kDXFbVmjfwLtpRyvL+WbC6U8kP0SzmjwtPmXVXf0Yo/fyKrcwjHr5v30NxTEZ0LXESrqS6hocxMeV8za7GdH7iMyjb72UioajtDSH0tiyks8vmDws+zgkZRMwi/7P4vLayUxMnbCetuik/C0lFLRcBRPWCbOrHd4NHJ4iUQSrW6q60s43vDfnCKN5fe+Q4E9ib6Og1Q0lFLTDYkpWynOWRZYp5A1d/+K7KgIvO1lHK8vo3VW5lCIxjtuOHayPmMl9isV/n1eqKBvdh5LFm3z9wXM2cGqwe9ZfQnHm47gCcvFmbmDB2BKx/12NuGZMmfjAAOTCVfdHyjOWMd+4Jn9Dfz7agf3/+2LsOutqdcqqogty4vGLu+7+uWShDzCByo5XrGBA4E59fX3/C9r4h+iYB7U1E9+d30d/8XOb98eer1mfgT0n+HM6Vc41A1QxPKcQiK8Y9dtPP+fHO+z0lT1NhUApDG74BDO6EIKeJ/ya+2j6yNezCwkLnYtUOb/LLhxVW9gbxtAIesKPyLbOn69vRff5ANXKQD2vj+waX4umQvSOFTtDpRwU1O9gU/aBtd4mUdiIsBbwn+ceCNwZqxg/f3byIrfyBKOcDyyiPToUWXcO3i+YC32CY7bksX52HDjqtjA3sD3pDznEM+n5JI1D8pJxAr4On/PJ6ePAJA+fyt5tk4uAfPCJ3/cb2cThtLnrqLWM2yBPYOctLE/LZ7aPzHYWP3gcCU7Vjuwp+bcWK26D7K37sCIRdnpO8iePfhqIylWoL8Dz7CbXCo63ayKz8MWM7Xd9V1pH/H668YjpGcso2DpNyzuqcLdeoDyus3UXeOGmsZeWBb3JEuWPzuyp7RvZLkR+xjw/xcelgSsJcEC9LlpGArPUdy+jglD6estHfrac/4HvPNzsVlXAoPN9R58bcNWSMvBPgt8fe6rTVVKafJtJSs2iRSABH9wPN0Hr5bpduHpu0YoRx23FEssEIuzoBrnqLI2G3BqFycduSxJ3MmWB1to8R7lVOMH7K2qAqBuCsf9djZhKGsP5pL79LAFH1YysPEGwzZZA+24mspGLEpfsGPYq17/D/asmdm959wm3mspJC+1CGdCIelzXyYr9Rlqajew+5x7WMlC1uT8iixrBy0XSzjZdAIPo3+BGGRgCmWvuCcuM0rPAICb6qq3qR79XhfAEQ7831K+SXiWxfOWkxWzlgey13JfWgmfHn+Dmkkf99tb0Hpf7Rn381jg62dW5GIHfJ7GYG1+lBKaeoCwWOzDrqHyYtIIpwNv59Vl1vDkqy8cSUxw8gHggbv3sSmrkLofNlPy5wfZfqwMzx2JZKUUjyqZg90CdP2Rnd++wddNZbiarISHTeWzlNHaC4SnkTpncFkhadaJrymtlqtNfHvaT/zH/HLV9Veor8IzANbwtGFnvSJSrBFw+QJNAJc68QG2qOKrZSKd17ymHK2hpwWwEj6rDFdT4F8HzB6ooKYTSNnGUz/7mPtmv8+Bbzfw3tfZHPJ0YLWt4r6UqRz329u0e1+HpP+SktpKGnxzyMh2AB7+tOeVoG1+tEONR1mcVUhe3sfYLtbgi8gnOz4RfAcprwc4SktPEYm2dWy6x0JddzKpiYXYAN8E246MSCMxZiPF+ZnUeJux2fzreXvPjCp5AV8/EPVznnH24O5NJjG+gHQLY5qv436WCxXcZ8vjruyPebzFBbZVZE3it4ct/iWecebR2JdGekouXDlD3fmj46yxnZOedTjmFPF3+cnUdLVji/05WRbwXNjFcYC2Euq7V+KMeZLi/CRqvJCauHJM0/VaXO4veHBOEVlZ+1g/5wTeK0mkJS0jMewM83rWsI844qLzmJe1D1vcUTykkW6LhYFKPB0QmTbZ4357C1ooPTUnaHPkkzN8SOTfgrX1a3A/xacR/u717NQ8/5DIpTIOnNwc6D4v45PvnRQvfJL0+GISAW97Jd6I3Ak/9KHKN7HlPkdm7EqWxAEDHXjbSzh0unRUyTI+O5OPfWERjqRiHICv6yD13SuZN5Xm69nNlEW8w1878nDOy/MPiXR34IgcfzWv1409sQhHYEik+sdN7Gsbf53yb35NTN5WFsetJC8O/5BI0xvsrjoSKHGUvZVvE5bzNNlxa1kSB31dFbT05ZE40edoe4XdNVbWZ6wkKyUTgL7LZ3Cd3sS+dqD979ln28kjjkKyUouH3q+u2+LvrJv0cb+9zWJqVxpjvPh5GztW2PEc3sychyff06pn9ExDYJyypTGbnaMv3mbCnN/x/OKV2DreZ/tf3p64vExL8JqvcntJKOaB6CTs0TmkJSzDTgd1zQrkzTDtUPoGr536JrpSk6CbVhtnAklPstwxvAm6mb1TGPuVGzft5uuNUvNV5No0IV3EMAqliGEUShHDKJQihlEoRQwTrl5QEbPoTCliGIVSxDAKpYhhFEoRwyiUIoZRKEUMo1CKGEahFDGMQiliGIVSxDAKpYhhFEoRwyiUIoZRKEUMo1CKGEahFDGMQiliGIVSxDAKpYhhFEoRwyiUIoZRKEUMo1CKGEahFDGMQiliGIVSxDAKpYhhpv3n1cUMCVEZZCUsJyEynfioDCxh0QB4e5u52FVHQ+dJznr+jLe3+RbXVCYya9vhu27Jn1eX4FhgX0rB/I3YLMmTKt/YeZJy90e0dtXOcM3kRimUIcoSFs1D6S9wp33p0LKL3XWc9RzjYlctvf2XhsrFR2WwMGEFNkvSUNkT53dzomHPTa+3TEyhDEGWsGgeu+s14iMzAPjRc4wTDXsmPPulxjjJn7seh805tN6Xde8OBVjMEPbwU4n/dKsrIZM3PJCX+7v4ovZfOdGwh+7LnqEy+XPXExEWTbuvfsS63t4LnG49TG9/F2lx+cRZ52G3zuOHtq9v9seQcaj3NcQ8mvXyUCD3f/8qZz3HRryfGuMkP/UJCuZvvO42XM1lfFX3LgB32pdSOP/pGa2zTI1CGUKcyWuHmp77v3913ObqRB0/p1sPU35uFwC5yWtIiMoIXkVlWhTKEHLv3PUAk7p+nAxXcxmNXhcA+alPTHt7EhwKZYhYmLCC2WFRXO7vwtVUFrTtnji/G/A3Yyc7rCIzS6EMEQsCQx9nPeVB7S1t6HTh7b0wYh9yaymUISI15m6AMR07wXC69XBgH86gb1umTqEMATZLMrPDogD/mS3YvD3+qXfxUelB37ZMnUIZAmIirs7EmYmB/sH5sLqmNIMmpN/GHlv02phlX9a9p0nphlMoQ0Bvf9cNlXUErkOHiwiPxts7ctngHSWXp7AfmTkKZQgYPiaZGuMc97qytauWT6s2Ywlcgw7X2991zfHN+MDEgdZu3TliAoUyRDR6XThsThwxd0/Y2TPViQWDQyEz0YkkU6eOnhBxts0/FLIwYXlQt2uzJBMf6e91/XEGhltk6hTKEDE4lmizJAd1PLEwMHG90evSjc+GUCgNYLMkTzghvLf/El/VvcuPnmO0dtUFZb8L7EuHbpIO5tQ9mR5dUxrgb3LfYnZYFHu+e27c4YrTrYeHzpjTlRCVwV+lvwD4m60zMVNIbozOlAYYnK0zfJLATEqNcbJ60WtYwqK52F3Hl4F7K8UMOlMaZPWi18d9/2J3LeXndt1wL6klLJr8uU/gTF4b2F4d+0+9qseBGEahDCHxkRmsXvQ6lc37OHruw0mvN/j4yYUJK4YmCjR6XRyq2a5AGkihNMj/fP/qdc+CqTFOnMlrudO+lNzkNYHnuE58HZgQlcEvcnYMvb7c38Vfzu/G1ayOHVMplCGiodNFQ6eLh9JfICthBflzn5hUKDt7mmn0uujtu8TZQIeOzo5mUygNN/h818Fpc5Zwf/MzPjLjmhPOe/u7OOsp53TrF4HXl9h/6tWbV2GZNoXScAlR6SMeuDzctSacg//RHvlz1/PZmTc1ISAEKZSGa+h08VXdu9giJnevY0RYdOBp6MmsXvQae757Ts3VEKNQhoCpThg43XqYxxa9jiUsmnvnrp9ST63cegqlQeIj0wnW35D4vvXzQG/tzxTKEKNQGqRgBp5Urkd8hB6F0iAXu+uCfv13MUiT1+XmUSgNUn7uQ91oLAqlCS5212EJiw7aLVkS2vT3KUUMo1u3RAyjUIoYRqEUMYxCKWIYhVLEMAqliGEUShHDKJQihlEoRQyjUIoYRqEUMYxCKWIYhVLEMAqliGEUShHDKJQihlEoRQyjUIoYRqEUMYxCKWIYhVLEMAqliGEUShHDKJQihlEoRQyjUIoYRqEUMYxCKWIYhVLEMAqliGEUShHDKJQihlEoRQyjUIoYRqEUMYxCKWIYhVLEMAqliGEUShHDKJQihlEoRQyjUIoYRqEUMYxCKWIYhVLEMAqliGEUShHDKJQihlEoRQyjUIoYRqEUMYxCKWIYhVLEMAqliGHusIWn3uo6iMgw/w8Z6FuXlV68jwAAAABJRU5ErkJggg==;" vertex="1" parent="NkwQf3qtkCEpOkier5qr-7">
          <mxGeometry x="49.319999999999936" y="52" width="181.36" height="118" as="geometry" />
        </mxCell>
        <mxCell id="NkwQf3qtkCEpOkier5qr-9" value="" style="shape=image;verticalLabelPosition=bottom;labelBackgroundColor=default;verticalAlign=top;aspect=fixed;imageAspect=0;image=data:image/png,iVBORw0KGgoAAAANSUhEUgAAAOgAAACWCAYAAADUgcTJAAATzElEQVR4nO3df1DU953H8Sfusiyy4PJLFllkEawI5lwrAW5sqjZae5G78yLTZOTmqm3vzE1+1DY23pzRmzbmJklJay/ptM5cxJspudghHZ1A7hxtFVN7QDXBxBVUEAyL/MYFVtiFJdwfuyy/ESPKh/T9mGGG+X6/+/1+9vPltZ/P9/P97JeAn/xi3+Cr/55HW0MvD9KB08se6PGEmEsM2lgywr9PQFRc8OCDDidIQIW4E4M2lnmzEU4hxJ05PY3Mm+1CCCEmJwEVQmESUCEUJgEVQmESUCEUJgEVQmESUCEUpp181X9yefA7LJ90vYPf/yCcR382g6VJKWavKWny9T2FvFxeQ+6aPVg0FZSdfZJTM3j4u5JSzF5TNHXVGRTYZ6sQ90+mtZwNxlYqzmym+PPuY2U5G8KDaKhfyZGa6bxihxrndqzwA+x8KIeovpMcK30W2wM89BQBreSj85WgB9ATm5KIUeui6VIttwBwUNs2w6VpeI1jt0K9vxv+nm/EW3G17ubM0HE8NUAWnsEZPq7K5vIHwWAfEHRXL7nrczvD9TMTH0wzaYqAvk7uw6/7fn+e393K42vGWoofSuW796s03SXYun2/B+bwDcAzUISteeRGlRz9Y/79KoGYQWUff4Wyu3pFvprn9taLHDr74qwceoqATlP60xTkH+DxFCN6LeBxUPvBW7z4T7t5u/reCzheLrlr9mEJKOXUH7ZTxtCnXh9N3TpMoWEAeFwlnLl+neQl27DovZ/iru4Cjl94CW+xzKR9KY8NMVYMGmDQjav3LKWVz3Ku27s+ffkh1kYnofddqbt6SrhYs5NT7cOlMZpOsSfJjDYA6K/BVruTYzd9H+XB2WxK+ResYVHe9Z910dZxmOOXfkXT0A5Cn2Lr8m+TMt9bbjxtNLS8wrGrRSyzlrPB6F1uSa5ib3KXv6VITjrCptgsjL4z6HFf5sqN54aPPYJxUR5bEzZiCvK1Zv01VNl38+6NSt8WY97rgJ2mvpF72EHuV/ZgGbhM07xUTIHe+nJ0HORMz1rWLcrCqAEGu2i6+UPeulYCQPrKcjaFM9y6+Vo7h7MLQ8hEdTb+3BK5h9ylW7HoffUz0EZT2y95t7Jgivo5wM51ORhuV+DUW4nSgLP9RX7+SSHJSYd41LSWqMChequgomY3J1rsbM6owjofIAzruiqs1PhaUu/+onoKebncF9TgXLas+B7L5od534fHTl3jSxTUlPjqzFeG3su4dKn++mlr+TlHKwtwjDtLE7vHQaKvUfDfb7JthRG9s5bKS5XUOo0krn+et/L33tuuJ6WDgImWRxGlvUxFYyFV3V1o9WvZkLqDqP6zVDQWUtfrRh+ay6MpZgCMyf9B9iIrWlcJFQ0FVNyyw/yNrFt+AAtAQh6PxiRBr299awUe/Voyk/O86wEIw6h3U9dUSEVHDa7AJNKS8lgDgJkNaS+TvkCH41Yh5xsKqe6FqKhd/G1Klu/1OTzx0C5S9H00tBZwvuEkDQOhxC3az2YzXKnby7FWO9BFQ/1ujlXu5Vw7EJ7HpvgsDAMVVDUUcL65BIcmdcSxRwjew9bkbEyB3cPH+MxMSuIbbAn3bmJM9L5XbX8FVY2F2Jx6ooLDxldxUBJ6ZyEVjSdp8gRhjNzDFnMyro5CKhpLcQyGYYp7gc3B3s01E56nqeps7LnNYkvyDiy6ofopotqlwxTzAlsSpqgfH33IEuj01v3F1kIwHWJz/FqiAmqobizgfGMJDo2V9GXe41+o2U1ZVxdgp6pyN8cqX+PCRG+BtWxduY+0EHDc8tZHw0A0lvifkBtvHrWlPtiMp7OQisYS2gbCiPKVfbrusQXVc/n027x9DWqfy+XFaiC5gOvXtpG44ms8z8u8fsd9zBQ71Ve3U3wLoMb7iU8ppRee9X4Shy/g6ZUbMeg3AvmsCU9F6ynlzJ92+rthbdZyNhhXkQbU6UPR4qat4yWKa7ytknVJHhbtyCECNw0NmzlaO/L1ZswxQPNTJBmCcDkOcujjoW6br1yh2UApxGVj1oGj+UmOVPpaPnseT2dmY4rMxWEvwGHaxRag3z2iqx8RhR5wdf+Sd32tlSV+H1ZDN7fH1UsJF+yhxPQXcaK+1LvIdYTnk7KIiQFuQXqkFS12bFVPcuwWQBZbs46Qoh+zK9dZii++SB1Aj3cfdL7FWzbv+7NoT5EbHY0xEpj0enCqOhu7bRIhWqD/I/5g8/V8wnewyZSG2w0Ox8mJ68fH0/U2hz4+OLwg9G3ON3QT2L2bM74ujHHeKZ6OWYLFDOfsRSTE7wfcuJqLJh8MitmGWQ/Ojtc49HGhd1nwPr6TkYvF9BTUD3eHR5XBV2cLwrKBosn2Pso9BvR93v4ol+K/e5xt1wa5X23m9Lhx3RqzqM8+fA10qxOPf0UuRh2gzWLDuio2jHmZMQ74tJDq8F0kx59ij8lOc3cJlZ8e5Jhj5F+em/7+seXQoQ0E4swYAL1xD3vX7Rm9yaCZdOC8IRo9oI85xd6YsbuZfPychnwumVJJjzrE3q+00eYs5UrTWxyrrBy/ba+dfm0qK8w5pI8ZIHcCkE2kDvDYafTXXyl2V9f4gH7W6Q0ngG8wx+kavmasG3BPXma/KepsnALKWrZiWrSRJ9aW4+y5zI32Ikordw9fIkzB81nn6AXdLZBoZfWiKtakjFzRNY29jRDuPbdtfYXDy3pP4nDnYgoykwn+v7tRZfDVmVYTPe1D3WNA83j3p9tYrgeXvZJaB0A4iStMjD23aun0jhZ6Kii79msaR61zc7sL6M3naOlJLLE5WGM2krAglw3WHLLaD/Jfn+Tf+RrC48YDuLry+d+GMZ/Fn7XRAOD7g3aMHKn2v36q+xIlnLiQwcXIp1gZt47k0GzWpGSz2lzA8fND19g+5gN8Y1EqWncFtub3uHa70z9CPhdUX3uc15vWssa0jaWRq0hbnEXaom2cr3ycE+13fv1IlpQ81kWYcd0u4Xzze9jdQNQutkRP0J2fygO8i3Bv16DfX0WiHrD/lq3xqaQ+lErqv/5x2hfAs6eI9j5Ao0PTVYSt2ffj0RPYc5K6XiDhDXY+vA+L4yDHKjbz8w82YOsNwhDx16RP5xDN13EOgn6ejobm4WO4A/S0t5Z666i7FSeg1eiHy9BcAQHQ0D5Bazgk5gDbH36H1YG/4sTHT/KLcymccnShN2xi9diW2BCNni7s9U9y7HoBtuYiGubpRnyA+upCayY2fGhZFmb9Xf7R3hfZbF5VzPa4aM5d28mR0gxerinFpU0lZVH2Xe8tRh8N1FD1p52c+NRb34Gaz9GUOOw4Ab0uZ3hZ8EaMQYDbfpcj11O7txb0vVoafwpG8+MU1F6m0em7XzpDhbufTjWVsjI5C6v1HQwd1bi0yVgirRgHsgk6t50ybRzGkFQyV75DZLsNpy6NhCCgv5Xp3f59lUuOrZjCc/jWqoVU93Sin59F8gIznphQXr+YD835VC/OwhrxAjv/Igu724Uh7Oskh4TRtsDOoSsV4O7GQxImUx7rBt+jqqGEJhawIMRKXHIxhgWlODBjMYTB4GUcY3tr/W48hGGOO8Lm4BoIXkWyMXV0XbRWsNpgZVnKO2xps4FhE8mKdIH0+iTiwl5gp85KXS8YjanogSZXhXeDCetnYk5PH5BEyuo38HS1YAhZi8UYxcgubnN/F5CExbqPNQ0nsQ19mI406rxZsbsXEB3xVUwBbhrafjWj7//eWtDq77L7J7+n1glGy3KWp4Rz6+T/UTtDhZtY38x0MezbOV5filNjJSU2B2u0FX1fKWVVvuH9muf4XfNlXForKXG5pEdb0fZXcL76JSqmeYiyiz+kzNGKNmwj1tgcUsLCcDryOX5x6LqtlOJLr2G7DcbwbKyxOSQHQ1vzSxy94jtK7QmqXV3oDdmsWfoCqwGan6W4voS2QTPJsbmkx67FOFhDVd1eTox9QEbNXv7QYcejz8Ial4t1wUI6Oy/jGrnNjd0U3byMJ9BKWlwuaQYXbb13eV02gYG7Pk9jz20R717Np7oXjOE5pMf56qftIMXXfGMBE9XPJGw1r3C+uwutYSPpcbmkhLip6xw9mlV38yQN/W6MxlzWLXuKiR/MM/K85WCN3UicppW6+uc4Ujuzs0kCeKA96mHyTCIh7kwmywuhMAmoEAqTgAqhMAmoEAqTgAqhMAmoEAqTgAqhMAmoEArTyoQBIdQlLagQCpOACqEwCagQCpOACqEwCagQCpOACqEwCagQCpOACqEwCagQCpOACqEwCagQCpOACqEwCagQCpOACqEwCagQCpOACqEwCagQCpOACqEwCagQCpOACqEwCagQCpOACqEwCagQCpOACqEwCagQCpOACqEwCagQCtPOdgHE57M0ch0JxkwWGzMAcPa1cMNRjq25GGdfyyyXTsyUgAOnlw3OdiHE9Ok0ITy27EdEBCdOuL5v4DZl9flcaz/9gEsm7gdpQeeQseGsbj/NDUc5fQO3MYWuYGnkegy6aB6xPEPfwG1uOMpnucTiXklA55C0mGwighPpH+jhVM0rNHbb/Osau23Ymov4quUZFhszeMTyDI2f/DN9A7dnscTiXskg0RyStnAzAB/ePOoP54qYv+EvF/8jYUGx9A3c5mzdm/QP9KDThLA0cv1sFlfMAGlBFaPThJBgfBiDbuGo5Yagheg0IQD+68sl4WvIMH8LgPDgeN6/st/XtS0jOXI9S6PWodPMH7WfvoHbNDkv095T+wDejbhXElCFGHQLeWzZj8aFcyRnX6u/2xoQoPEvnxcwfCrbe+pIjoSI4MRJB5M+qHtTBpLmAAmoQrLid2DQLaR/oIf23olbOFtzkf/3mo6zLNDHEhYUyyfNx/3Lr7WfJnK+BUPQ+KDrNCFEBFu816jdNrklozgJqEJMoWkAnK17Y9ojsB/ePDpu2dC16GS2pL5ORLCF2NA0rrVLQFUmg0QKGbrGvN8jr0P7n6iFFWqRgAqhMAmoEAqTgP4Z6uipA6Cp+9Isl0TciQwS/RkqrT/MhzePyiyjOUACOgcEaQ2sTfwecWFWWpxXxq2PDllKQ1cFZ67/jP7PXNPap4RzbpCAzgEJxkzMYV8GIMawfMJt4heks9iYQU3H2Qlen0FEsAWdNgSdJgSnu8X39bQ/SVAVJwGdA662/Y7BwUECNUGTbtM30DsunKsWPUHaws3+2zdjPYJ3UsNHN38jExYUJQGdI661/37a2xp0C9mQ/MKoaX5NTpt/gn1ksIXY0BUEauazNHI9CcYMPqh7U76epiAJ6BeMQbeQLal56DQh9A/0cKmlCFtz0YRd2QRjBpnx38agi+bRpD0yP1dBEtA5YlHoQ2jm6UYt63TdpMvdOGrZhuQ9/nC+f3X/lN9aueEop7Hb5v8OaWb8Djp66+SbLgqRgM4BS8LXsG7JDyZc9+uKf/C3jqsWPUFEsGVa4RwyNG/3sWU/JiLYQqZ5O+9f/bcZLb/4/GSiwhzQ1nMdh6uenv52/w/A9Y4PRnVdVyzMBuBSS9G0whkbmkaCMYO+gducqn4VAFPoCmJ9k/bF7JMWdA7ocjfyW9uuKbdJMGYQ6Pty9sivpE0mNjSNv/rSjwE4fGErzr4WPnWUs9iYQYIxc9TjVMTskRb0CyJivnfEtslpu+O9TZ0mhEeT9vi3HzI0ihsx33KfSinulgT0CyJUFw0wrZZv5EDSUNcW8N8LNRmki6sK6eLOASG6SNYv+QGB84afLxQWFEN1RwnnbhwCmHAywlctz6DThHC27s1RA0lDATxV84rMJFKctKBzQGzoChaGpBAevNj/o5kXxLKor6PXLgCgvdf7DZWhlhTwP3n+sWU/QqcJITY0jVWx3wTgo8bfjGtth0Le4duXmH3Sgs4B1e0leAbcE9wHbcDl6QTA6fZ1T0eMwJbWH+YRyzNEBCeOehhZk9PGRxM8KiVh6N9IuGXanyokoHNEnaN0yvU3HOU8gncmUWxoGo3dNv+soKGQAuOuO4foNCH+//MiU/7UIV3cL4i+gdtUjwjkyGfo/s/V/TQ5bXzqKOf9q/snvO788qIn/ANHElB1SAv6BfLhzd+QYMzEoFtIZvwOPvA92a+x20bjlf2Tvm5p5HpSfU+tL60/LANHCpEW9AvE2ddCaf1hwBu6Lal5Uz4EW6cJITN+B49YngG8/4xJJsurRVpQhXT01hERbCE5cj138z8hne5W/z3Msded33zol3zqKOeGo4zuvlYA/4ju0sj1/q5wdfvpKZ+lK2aH/H9QhaQtzCYzfsfneu3xyt2j5t9Gzk8kM37HHScd9A/0UFp/WFpORUkLqhBbi3cObVpMNoYR9zPvpH+gB7dn9HVje08t71/ZT4Ixw/vIk/mJRAR7p/A5+1rp6KnlhqPc//9FhZqkBRVCYTJIJITCJKBCKEwCKoTCJKBCKEwCKoTCJKBCKEwCKoTCJKBCKEwCKoTCJKBCKEwCKoTCJKBCKEwCKoTCJKBCKEwCKoTCJKBCKEwCKoTCJKBCKEwCKoTCJKBCKEwCKoTCJKBCKEwCKoTCJKBCKEwCKoTCJKBCKEwCKoTCJKBCKEwCKoTCJKBCKEwCKoTCJKBCKEwCKoTCJKBCKEwCKoTCJKBCKEwCKoTCJKBCKEwCKoTCJKBCKEwCKoTCJKBCKEwCKoTCJKBCKEwCKoTCJKBCKEwCKoTCJKBCKEwCKoTCJKBCKEwCKoTCJKBCKEwCKoTCJKBCKGyeQRs722UQQkzAoI1l3sPhu5CQCqEWgzaWh8N38f/3eVqjKgmS4QAAAABJRU5ErkJggg==;" vertex="1" parent="NkwQf3qtkCEpOkier5qr-7">
          <mxGeometry x="48.17999999999995" y="532" width="182.5" height="118" as="geometry" />
        </mxCell>
        <mxCell id="NkwQf3qtkCEpOkier5qr-10" value="" style="endArrow=none;html=1;rounded=0;fontSize=25;" edge="1" parent="NkwQf3qtkCEpOkier5qr-7">
          <mxGeometry width="50" height="50" relative="1" as="geometry">
            <mxPoint x="-550" y="352" as="sourcePoint" />
            <mxPoint x="570" y="352" as="targetPoint" />
          </mxGeometry>
        </mxCell>
        <mxCell id="NkwQf3qtkCEpOkier5qr-11" value="" style="endArrow=none;html=1;rounded=0;fontSize=25;" edge="1" parent="NkwQf3qtkCEpOkier5qr-7">
          <mxGeometry width="50" height="50" relative="1" as="geometry">
            <mxPoint x="-550" y="512" as="sourcePoint" />
            <mxPoint x="570" y="512" as="targetPoint" />
          </mxGeometry>
        </mxCell>
        <mxCell id="NkwQf3qtkCEpOkier5qr-12" value="Info" style="swimlane;whiteSpace=wrap;fontSize=25;" vertex="1" parent="1">
          <mxGeometry x="1004.5" y="128" width="280" height="822" as="geometry" />
        </mxCell>
        <mxCell id="NkwQf3qtkCEpOkier5qr-13" value="Where employees can write their hours and progress" style="text;html=1;strokeColor=none;fillColor=none;align=center;verticalAlign=middle;whiteSpace=wrap;rounded=0;fontSize=25;" vertex="1" parent="NkwQf3qtkCEpOkier5qr-12">
          <mxGeometry x="27.75" y="52" width="224.5" height="108" as="geometry" />
        </mxCell>
        <mxCell id="NkwQf3qtkCEpOkier5qr-14" value="Supervisors can assign worker to tasks" style="text;html=1;strokeColor=none;fillColor=none;align=center;verticalAlign=middle;whiteSpace=wrap;rounded=0;fontSize=25;" vertex="1" parent="NkwQf3qtkCEpOkier5qr-12">
          <mxGeometry x="13.75" y="212" width="252.5" height="118" as="geometry" />
        </mxCell>
        <mxCell id="NkwQf3qtkCEpOkier5qr-15" value="Supervisors can write or edit timesheet hours&amp;nbsp; approve timesheets" style="text;html=1;strokeColor=none;fillColor=none;align=center;verticalAlign=middle;whiteSpace=wrap;rounded=0;fontSize=25;" vertex="1" parent="NkwQf3qtkCEpOkier5qr-12">
          <mxGeometry x="27.5" y="372" width="242.5" height="118" as="geometry" />
        </mxCell>
        <mxCell id="NkwQf3qtkCEpOkier5qr-16" value="Admins audit timesheets before they are sent to external system" style="text;html=1;strokeColor=none;fillColor=none;align=center;verticalAlign=middle;whiteSpace=wrap;rounded=0;fontSize=25;" vertex="1" parent="NkwQf3qtkCEpOkier5qr-12">
          <mxGeometry x="25.5" y="522" width="244.5" height="128" as="geometry" />
        </mxCell>
        <mxCell id="NkwQf3qtkCEpOkier5qr-21" value="Supervisors can view task details, update progress and create detail planning.&amp;nbsp;" style="text;html=1;strokeColor=none;fillColor=none;align=center;verticalAlign=middle;whiteSpace=wrap;rounded=0;fontSize=25;" vertex="1" parent="NkwQf3qtkCEpOkier5qr-12">
          <mxGeometry x="21.75" y="682" width="248.25" height="128" as="geometry" />
        </mxCell>
        <mxCell id="NkwQf3qtkCEpOkier5qr-17" value="" style="endArrow=none;html=1;rounded=0;fontSize=25;" edge="1" parent="1">
          <mxGeometry width="50" height="50" relative="1" as="geometry">
            <mxPoint x="160" y="310" as="sourcePoint" />
            <mxPoint x="1280" y="310" as="targetPoint" />
          </mxGeometry>
        </mxCell>
      </root>
    </mxGraphModel>
  </diagram>
</mxfile>
